<svg xmlns="http://www.w3.org/2000/svg" width="566.929" height="234.485" viewBox="0 0 566.929 234.485">
  <g id="Group_11" data-name="Group 11" transform="translate(-118.36 -138.215)">
    <g id="The_Residences_DC_C" data-name="The Residences DC C" transform="translate(0 -650.139)">
      <g id="Group_5" data-name="Group 5">
        <g id="Group_4" data-name="Group 4">
          <g id="Group_1" data-name="Group 1">
            <path id="Path_1" data-name="Path 1" d="M214.079,905.457v40.286h3.242c4.619,0,7.685-.481,9.822-3.407,2.433-3.353,3.242-8.683,3.242-16.286,0-14.61-1.906-20.593-10.984-20.593Zm-10.467,40.286h5.609V905.457h-5.609v-1.134h16.134c9.423,0,16.134,8.494,16.134,21,0,7.841-2.61,14.424-6.826,18.258-3.181,2.873-6.707,3.3-11.568,3.3H203.612Z" fill="#1a1818"/>
            <path id="Path_2" data-name="Path 2" d="M245.246,932.813c0,9.341,1.1,13.771,5.9,13.771s5.9-4.43,5.9-13.771c0-9.28-1.159-13.767-5.9-13.767-4.8,0-5.9,4.487-5.9,13.767m16.6,0c0,8.5-5.03,14.79-10.7,14.79s-10.7-6.288-10.7-14.79,5.031-14.725,10.7-14.725c5.609,0,10.7,6.226,10.7,14.725" fill="#1a1818"/>
            <path id="Path_3" data-name="Path 3" d="M280.575,918.089a4.007,4.007,0,0,1,3.879,4.249,2.667,2.667,0,0,1-2.606,2.93,2.317,2.317,0,0,1-2.371-2.453,2.275,2.275,0,0,1,2.2-2.515,2.544,2.544,0,0,1,1.738.781,3.163,3.163,0,0,0-3.127-2.035c-3.3,0-6.415,5.265-6.415,13.648v13.225h4.044v.961H265.6v-.961h3.991V919.7H265.6v-.958h8.039l.234,6.884c1.327-4.964,3.583-7.541,6.7-7.541" fill="#1a1818"/>
            <path id="Path_4" data-name="Path 4" d="M298.213,947.6c-5.609,0-10.693-6.288-10.693-14.729a17.2,17.2,0,0,1,4.624-11.971,8.715,8.715,0,0,1,6.645-2.811,6.926,6.926,0,0,1,6.772,7.122c0,2.335-1.274,3.7-3.008,3.7a2.723,2.723,0,0,1-2.721-2.807,2.648,2.648,0,0,1,2.659-2.815,2.681,2.681,0,0,1,2.08,1.077c-.633-3.411-2.828-5.326-5.836-5.326-5.671,0-6.419,4.972-6.419,15.024,0,8.441,1.212,12.448,6.07,12.448,4.34,0,7.578-3.764,8.038-10.356h.925c-.576,7.307-4.048,11.441-9.136,11.441" fill="#1a1818"/>
            <path id="Path_5" data-name="Path 5" d="M325.16,919.582c-3.7,0-7.11,5.03-7.11,13.167V945.92h3.986v.962H309.72v-.962h4.048V905.334H309.72v-1.011h8.33v22.023c1.27-5.326,4.451-8.256,8.211-8.256,3.929,0,6.764,3.345,6.764,9.337V945.92h3.991v.962H324.7v-.962h4.044V925.389c0-3.892-1.22-5.807-3.587-5.807" fill="#1a1818"/>
            <path id="Path_6" data-name="Path 6" d="M355.436,931.142c.054-1.147.054-2.228.054-3.181,0-6.16-1.1-8.918-4.969-8.918-4.048,0-5.613,3.839-5.782,12.1Zm4.509,7.117c-1.04,5.984-4.455,9.341-8.963,9.341-6.181,0-11.1-6.345-11.1-14.967a16.856,16.856,0,0,1,4.224-11.371,8.305,8.305,0,0,1,6.477-3.172c5.087,0,9.25,5.207,9.481,14.009H344.678c-.058,1.073-.111,2.154-.111,3.107,0,7.722,1.96,11.314,6.821,11.314,3.526,0,6.592-2.992,7.574-8.261Z" fill="#1a1818"/>
            <path id="Path_7" data-name="Path 7" d="M375.094,946.583a5.21,5.21,0,0,0,5.145-5.449c0-3.835-2.946-5.326-7.923-7.965-4.22-2.268-6.822-3.707-6.822-8.017a6.722,6.722,0,0,1,6.707-7.065c2.084,0,4.11,1.077,6.074,3.292l3.066-2.63h.119v10.475h-.637c-1.447-6.464-4.981-10.118-8.622-10.118a3.692,3.692,0,0,0-3.924,3.654c0,3.407,2.6,4.545,6.41,6.522,5.322,2.757,8.1,4.906,8.1,9.7,0,4.964-3.353,8.622-7.639,8.622-2.54,0-4.969-1.323-6.933-3.9l-2.659,3.288h-.637v-11.61h.637c1.73,7.245,5.433,11.2,9.538,11.2" fill="#1a1818"/>
            <path id="Path_8" data-name="Path 8" d="M385.563,919.7v-.958h4.393v-8.56a5.561,5.561,0,0,0,4.278-3.711v12.271h5.092v.958h-5.092v23.108c0,2.453.349,3.587,2.022,3.587,2.2,0,3.822-2.157,4.1-6.168h.929c-.349,4.857-2.371,7.372-5.782,7.372-3.707,0-5.552-2.034-5.552-6.049V919.7Z" fill="#1a1818"/>
            <path id="Path_9" data-name="Path 9" d="M420.259,931.142c.054-1.147.054-2.228.054-3.181,0-6.16-1.1-8.918-4.973-8.918-4.048,0-5.609,3.839-5.786,12.1Zm4.509,7.117c-1.044,5.984-4.455,9.341-8.963,9.341-6.185,0-11.1-6.345-11.1-14.967a16.852,16.852,0,0,1,4.22-11.371,8.314,8.314,0,0,1,6.481-3.172c5.088,0,9.246,5.207,9.477,14.009H409.505c-.058,1.073-.12,2.154-.12,3.107,0,7.722,1.965,11.314,6.826,11.314,3.526,0,6.588-2.992,7.57-8.261Z" fill="#1a1818"/>
            <path id="Path_10" data-name="Path 10" d="M443.5,918.089a4,4,0,0,1,3.876,4.249,2.67,2.67,0,0,1-2.61,2.93,2.317,2.317,0,0,1-2.367-2.453,2.275,2.275,0,0,1,2.2-2.515,2.522,2.522,0,0,1,1.734.781,3.158,3.158,0,0,0-3.119-2.035c-3.3,0-6.419,5.265-6.419,13.648v13.225h4.043v.961H428.524v-.961h3.994V919.7h-3.994v-.958h8.038l.235,6.884c1.327-4.964,3.579-7.541,6.706-7.541" fill="#1a1818"/>
            <path id="Path_11" data-name="Path 11" d="M498.233,903.661l-4.862,19.278h-.809c.115-1.257.115-2.519.115-3.9,0-9.4-2.548-14.306-7.048-14.306-3.181,0-6.189,2.758-9.029,8.2-4.68,8.917-6.933,17.363-6.933,24.723,0,5.807,2.487,8.8,7.11,8.8,5.61,0,10.237-4.9,14.051-14.905l1.043.362c-3.994,10.421-9.078,15.69-14.806,15.69-7.052,0-11.963-6.23-11.963-15.333a32.643,32.643,0,0,1,4.389-15.62c4.685-8.5,10.931-12.991,16.076-12.991,2.31,0,4.044,1.02,5.893,3.054,1.044,1.138,1.562,2.038,2.38,2.038,1.381,0,2.482-1.857,3.411-5.092Z" fill="#1a1818"/>
            <path id="Path_12" data-name="Path 12" d="M505.525,922.279a45.834,45.834,0,0,0-4.8,11.667,33.034,33.034,0,0,0-1.553,8.441c0,2.577,1.5,4.131,3.69,4.131,1.915,0,3.476-1.254,4.861-3.822,4.517-8.445,6.193-15.752,6.193-19.336,0-2.757-1.393-4.315-3.764-4.315-1.623,0-3.292,1.139-4.623,3.234m11.675,5.626a22.948,22.948,0,0,1-3,11.133c-3.181,5.564-7.4,8.565-11.161,8.565-3.81,0-7.287-4.2-7.287-10.3a23.484,23.484,0,0,1,4.389-13.114c2.721-3.949,6.658-6.1,9.962-6.1,3.986,0,7.1,3.768,7.1,9.817" fill="#1a1818"/>
            <path id="Path_13" data-name="Path 13" d="M522.859,945.022c0,.958.522,1.558,1.213,1.558,2.083,0,4.627-3.649,8.276-10.775l.806.423c-3.7,7.418-6.6,11.375-8.963,11.375-2.084,0-3.88-2.4-3.88-6.106a29.775,29.775,0,0,1,1.8-8.084l7.808-24.061a9.351,9.351,0,0,0,.637-2.639c0-1.072-.694-1.376-2.663-1.376h-2.313l.292-1.015H535.7l-12.316,38.251a8.089,8.089,0,0,0-.522,2.449" fill="#1a1818"/>
            <path id="Path_14" data-name="Path 14" d="M540.266,945.022c0,.958.521,1.558,1.208,1.558,2.087,0,4.627-3.649,8.276-10.775l.806.423c-3.7,7.418-6.6,11.375-8.955,11.375-2.092,0-3.883-2.4-3.883-6.106a29.561,29.561,0,0,1,1.791-8.084l7.808-24.061a9.363,9.363,0,0,0,.638-2.639c0-1.072-.691-1.376-2.659-1.376h-2.314l.288-1.015h9.83l-12.313,38.251a7.962,7.962,0,0,0-.521,2.449" fill="#1a1818"/>
            <path id="Path_15" data-name="Path 15" d="M570.221,922.335c0-2.149-1.044-3.292-2.548-3.292-3.35,0-6.477,4.907-9.428,14.729,7.467-.962,11.976-6.165,11.976-11.437m2.889,13.348c-3.933,7.964-7.985,11.917-12.723,11.917-4.451,0-7.459-3.715-7.459-9.579a20.536,20.536,0,0,1,3.641-11.433c3.818-5.687,8.153-8.5,11.1-8.5a5.6,5.6,0,0,1,5.613,5.749c0,5.145-5.326,9.456-15.324,10.956a21.587,21.587,0,0,0-1.393,6.818c0,3.353,1.274,4.972,3.994,4.972,4.159,0,7.923-3.768,11.679-11.256Z" fill="#1a1818"/>
            <path id="Path_16" data-name="Path 16" d="M595.259,935.683c-3.876,7.9-8.211,11.917-12.374,11.917-3.995,0-7.056-3.953-7.056-10.06a21.488,21.488,0,0,1,2.712-10.233c3.3-5.987,8.038-9.221,12.025-9.221,3.476,0,5.5,2.157,5.5,5.749,0,2.511-1.557,4.368-3.641,4.368a2.279,2.279,0,0,1-2.256-2.511c0-1.561.814-2.457,2.544-3.3.929-.481,1.447-.658,1.447-1.316,0-1.023-1.27-2.038-3.292-2.038a6.592,6.592,0,0,0-5.384,3.292c-2.429,3.6-3.809,8.26-5.26,14.005a22.656,22.656,0,0,0-.81,5.392c0,3.172,1.274,4.849,3.641,4.849,3.65,0,7.632-3.772,11.335-11.256Z" fill="#1a1818"/>
            <path id="Path_17" data-name="Path 17" d="M610.114,918.747h5.676L615.44,920h-5.72l-7.295,22.566a8.193,8.193,0,0,0-.517,2.453c0,.954.517,1.558,1.216,1.558,2.075,0,4.627-3.65,8.268-10.771l.757.419c-3.769,7.545-6.428,11.375-9.144,11.375-2.018,0-3.756-2.162-3.756-5.268,0-1.562.632-4.615,2.021-8.926L605.606,920h-4.8l.354-1.257h4.8l3.814-11.622h4.106Z" fill="#1a1818"/>
            <path id="Path_18" data-name="Path 18" d="M627.182,912.286a2.363,2.363,0,0,1-2.437-2.638,3.558,3.558,0,0,1,3.238-3.6,2.449,2.449,0,0,1,2.491,2.7,3.506,3.506,0,0,1-3.292,3.534m-3.822,5.8c2.137,0,3.645,2.1,3.645,5.8,0,3.049-1.274,6.472-3.238,10.775-2.084,4.553-3.879,7.541-3.879,9.756,0,1.438.526,2.157,1.5,2.157,2.2,0,5.264-3.83,8.326-11.494l.871.362c-3.185,8.137-6.534,12.152-8.963,12.152-2.195,0-4.048-2.639-4.048-6.407,0-3.354,1.389-6.107,2.836-9.214,2.659-5.687,4.561-9.164,4.561-11.194a1.6,1.6,0,0,0-1.5-1.8c-2.2,0-4.561,3.234-7.857,9.456l-.876-.477c3.477-6.526,6.021-9.875,8.622-9.875" fill="#1a1818"/>
            <path id="Path_19" data-name="Path 19" d="M642.439,922.279a46.062,46.062,0,0,0-4.8,11.667,33.23,33.23,0,0,0-1.554,8.441c0,2.577,1.5,4.131,3.7,4.131,1.9,0,3.469-1.254,4.853-3.822,4.517-8.445,6.19-15.752,6.19-19.336,0-2.757-1.394-4.315-3.757-4.315-1.623,0-3.3,1.139-4.631,3.234m11.683,5.626a23.008,23.008,0,0,1-3.008,11.133c-3.181,5.564-7.4,8.565-11.153,8.565-3.826,0-7.295-4.2-7.295-10.3a23.4,23.4,0,0,1,4.4-13.114c2.716-3.949,6.649-6.1,9.941-6.1,3.994,0,7.113,3.768,7.113,9.817" fill="#1a1818"/>
            <path id="Path_20" data-name="Path 20" d="M665.864,924.61a13.97,13.97,0,0,0,.8-3.592c0-1.253-.575-2.034-1.389-2.034-1.965,0-4.447,4.068-7.808,12.209l-.921-.295c3.645-8.5,6.128-12.876,8.729-12.876,1.972,0,3.415,2.162,3.415,5.569a41.48,41.48,0,0,1-1.619,9.1c4.105-9.694,7.282-14.547,10.409-14.547,2.248,0,4.1,2.272,4.1,5.926,0,2.81-.929,5.506-2.018,8.564-2.03,5.5-3.876,9.275-3.876,12.028,0,1.2.465,1.8,1.328,1.8,2.309,0,4.109-3.649,7.459-10.713l.809.411c-3.472,7.549-5.6,11.445-8.326,11.445-2.2,0-4.109-2.277-4.109-5.754a20.11,20.11,0,0,1,1.5-7.006l3.357-8.38a15.176,15.176,0,0,0,1.27-5.2c0-1.443-.518-2.1-1.557-2.1-3.53,0-8.33,9.213-14.573,27.715h-4.167Z" fill="#1a1818"/>
            <path id="Path_21" data-name="Path 21" d="M130.262,898.771c-2.088-1.439-5.984-3.23-11.9-3.23v1.315c5.754.164,9.563,2.445,11.733,5.86,2.568,4.031,3.6,12.678,3.6,24.62s-1.028,20.585-3.6,24.62c-2.17,3.415-5.979,5.692-11.733,5.865v1.311c6.037,0,9.814-1.788,11.9-3.226,9.283-6.407,12.209-19.479,12.209-28.57s-2.926-22.163-12.209-28.565m42.159-1.915v-1.315c-5.922,0-9.813,1.791-11.9,3.23-9.279,6.4-12.209,19.475-12.209,28.565s2.93,22.163,12.209,28.57c2.088,1.438,5.864,3.226,11.9,3.226v-1.311c-5.753-.173-9.563-2.45-11.732-5.865-2.569-4.035-3.6-12.673-3.6-24.62s1.031-20.589,3.6-24.62c2.169-3.415,5.979-5.7,11.732-5.86" fill="#1a1818"/>
          </g>
          <g id="Group_2" data-name="Group 2">
            <path id="Path_22" data-name="Path 22" d="M139.131,828.88h-7.194V791.849H118.36v-2.837h34.347v2.837H139.131Z" fill="#1a1818"/>
            <path id="Path_23" data-name="Path 23" d="M192,809.832H172.245V828.88H165.1V789.012h7.142v17.831H192V789.012H199.2V828.88H192Z" fill="#1a1818"/>
            <path id="Path_24" data-name="Path 24" d="M216.25,789.012h26.089v2.837H223.393v14.994h16.818v2.938H223.393v16.262h18.946v2.837H216.25Z" fill="#1a1818"/>
            <path id="Path_25" data-name="Path 25" d="M282.692,828.88H275.55V789.012h10.03c9.827,0,18.541,1.924,18.541,10.536,0,5.724-3.85,8.511-9.322,9.726l13.982,19.606h-8.714L287.2,810.085h-4.509Zm2.786-21.48c6.637,0,10.994-1.52,10.994-7.852s-4.357-7.852-10.994-7.852h-2.786v15.7Z" fill="#1a1818"/>
            <path id="Path_26" data-name="Path 26" d="M321.633,789.012h26.088v2.837H328.775v14.994h16.819v2.938H328.775v16.262h18.946v2.837H321.633Z" fill="#1a1818"/>
            <path id="Path_27" data-name="Path 27" d="M374.353,811.858l-3.85-1.368c-7.142-2.532-9.778-6.737-9.778-11.752,0-6.636,5.928-10.384,13.425-10.384a26.351,26.351,0,0,1,11.8,2.684V801.27h-.66c-1.874-6.635-5.42-10.587-11.194-10.587-4.965,0-7.7,2.279-7.7,5.674,0,3.089,1.519,5.673,6.737,7.6l4.255,1.519c5.168,1.875,11.246,4.559,11.246,12.158,0,7.8-6.586,11.955-15.044,11.955a27.465,27.465,0,0,1-13.172-3.091V815.252h.608c2.026,7.6,5.623,11.955,12.259,11.955,5.826,0,9.219-2.279,9.219-7.092C382.508,815.911,379.47,813.682,374.353,811.858Z" fill="#1a1818"/>
            <path id="Path_28" data-name="Path 28" d="M403.822,789.012h7.143V828.88h-7.143Z" fill="#1a1818"/>
            <path id="Path_29" data-name="Path 29" d="M439.932,789.012c13.882,0,23.911,7.5,23.911,19.959s-10.029,19.909-24.014,19.909h-11.8V789.012Zm-4.761,2.785v34.3h5.013c8,0,15.855-3.952,15.855-17.122S448.187,791.8,440.184,791.8Z" fill="#1a1818"/>
            <path id="Path_30" data-name="Path 30" d="M478.06,789.012h26.088v2.837H485.2v14.994h16.82v2.938H485.2v16.262h18.946v2.837H478.06Z" fill="#1a1818"/>
            <path id="Path_31" data-name="Path 31" d="M550.434,789.012V828.88H544.66l-23.353-34.752V828.88h-3.19V789.012h7.952l21.123,31.508V789.012Z" fill="#1a1818"/>
            <path id="Path_32" data-name="Path 32" d="M602.7,791.9v9.828h-.658c-2.687-8.257-7.8-11.094-14.439-11.094-8.207,0-15.2,5.724-15.2,18.338s6.991,18.338,15.2,18.338c6.636,0,11.955-2.837,14.639-11.094h.61v9.828a31,31,0,0,1-15.249,3.545c-14.691,0-23-9.22-23-20.617s8.41-20.617,23.149-20.617C593.375,788.354,598.646,789.367,602.7,791.9Z" fill="#1a1818"/>
            <path id="Path_33" data-name="Path 33" d="M618.283,789.012h26.088v2.837H625.425v14.994h16.82v2.938h-16.82v16.262h18.946v2.837H618.283Z" fill="#1a1818"/>
            <path id="Path_34" data-name="Path 34" d="M671.005,811.858l-3.852-1.368c-7.142-2.532-9.778-6.737-9.778-11.752,0-6.636,5.929-10.384,13.427-10.384a26.35,26.35,0,0,1,11.8,2.684V801.27h-.661c-1.874-6.635-5.42-10.587-11.194-10.587-4.965,0-7.7,2.279-7.7,5.674,0,3.089,1.519,5.673,6.739,7.6l4.255,1.519c5.168,1.875,11.245,4.559,11.245,12.158,0,7.8-6.587,11.955-15.046,11.955a27.469,27.469,0,0,1-13.171-3.091V815.252h.61c2.025,7.6,5.622,11.955,12.258,11.955,5.826,0,9.22-2.279,9.22-7.092C679.16,815.911,676.121,813.682,671.005,811.858Z" fill="#1a1818"/>
          </g>
          <g id="Group_3" data-name="Group 3">
            <path id="Path_35" data-name="Path 35" d="M338.678,995.766c9.734,0,15.986,5.037,15.986,13.32s-6.252,13.284-15.986,13.284h-8.45v-26.6Zm-2.906,2.063v22.478h2.771c5.476,0,10.274-1.589,10.274-11.221s-4.8-11.257-10.274-11.257Z" fill="#1a1818"/>
            <path id="Path_36" data-name="Path 36" d="M372.144,995.766v17.173c0,5.915,2.739,7.569,7.166,7.569,5.307,0,7.605-2.906,7.605-8.247V995.766h2.434V1012.5c0,7.064-3.516,10.342-11.458,10.342-7.2,0-11.289-2.973-11.289-9.868V995.766Z" fill="#1a1818"/>
            <path id="Path_37" data-name="Path 37" d="M410.105,995.766c5.611,0,10.952,1.421,10.952,6.49,0,3.246-2.739,5.377-6.321,5.847,4.124.373,7.942,2.231,7.942,6.594,0,5.979-5.508,7.673-12.437,7.673H402.3v-26.6Zm-2.263,1.931v10.037h1.486c4.8,0,6.016-2.027,6.016-5.037,0-2.974-1.216-5-6.016-5Zm2.668,22.743c4.26,0,6.321-1.385,6.321-5.406,0-4.126-2.061-5.474-6.321-5.474h-2.668v10.88Z" fill="#1a1818"/>
            <path id="Path_38" data-name="Path 38" d="M447.56,1013.513H437.319L434,1022.37h-2.332l10.142-26.6h4.7l10.173,26.6H450.94Zm-9.126-3.01h8.011l-4.058-10.643Z" fill="#1a1818"/>
            <path id="Path_39" data-name="Path 39" d="M467.875,995.766h5.547v26.6h-5.547Z" fill="#1a1818"/>
          </g>
        </g>
        <rect id="Rectangle_1" data-name="Rectangle 1" width="566.929" height="1.922" transform="translate(118.36 867.776)" fill="#1a1818"/>
      </g>
    </g>
  </g>
</svg>
