<svg xmlns="http://www.w3.org/2000/svg" width="314.477" height="369.909" viewBox="0 0 314.477 369.909">
  <g id="The_Residences_DC_C" data-name="The Residences DC C" transform="translate(-137.48 -288.615)">
    <g id="Group_5" data-name="Group 5" transform="translate(137.48 288.615)">
      <g id="Group_4" data-name="Group 4" transform="translate(0 0)">
        <g id="Group_1" data-name="Group 1">
          <path id="Path_21" data-name="Path 21" d="M206.715,306.37C194.567,298,171.9,287.582,137.48,287.582v7.65c33.471.954,55.629,14.223,68.254,34.088,14.946,23.454,20.919,73.75,20.919,143.215s-5.973,119.744-20.919,143.22c-12.624,19.865-34.772,33.089-68.254,34.11v7.627c35.119,0,57.087-10.4,69.235-18.766,54-37.267,71.018-113.289,71.018-166.192S260.712,343.615,206.715,306.37m245.242-11.138v-7.65c-34.441,0-57.082,10.426-69.229,18.788-53.975,37.245-71.018,113.289-71.018,166.164s17.044,128.925,71.018,166.192c12.148,8.368,34.11,18.766,69.229,18.766v-7.627c-33.465-1-55.629-14.245-68.248-34.11-14.946-23.477-20.941-73.727-20.941-143.22s6-119.761,20.941-143.215c12.619-19.865,34.772-33.134,68.248-34.088" transform="translate(-137.48 -287.582)" fill="#7f6543"/>
        </g>
      </g>
    </g>
  </g>
</svg>
