<svg xmlns="http://www.w3.org/2000/svg" xmlns:xlink="http://www.w3.org/1999/xlink" width="762.187" height="293.19" viewBox="0 0 762.187 293.19">
  <defs>
    <linearGradient id="linear-gradient" x1="-0.122" y1="0.798" x2="1.194" y2="0.04" gradientUnits="objectBoundingBox">
      <stop offset="0" stop-color="#e6c273"/>
      <stop offset="0.097" stop-color="#e0bc6d"/>
      <stop offset="0.225" stop-color="#d1ab5f"/>
      <stop offset="0.37" stop-color="#b98f48"/>
      <stop offset="0.528" stop-color="#976927"/>
      <stop offset="0.568" stop-color="#8e5f1e"/>
      <stop offset="0.675" stop-color="#86581c"/>
      <stop offset="0.841" stop-color="#704617"/>
      <stop offset="1" stop-color="#553011"/>
    </linearGradient>
  </defs>
  <path id="Path_216" data-name="Path 216" d="M1338.37,317.37c-.6-.066-1.247-.229-1.638-.3,1.122-1.62,4.055-2.521,5.55-3.033l-.758.713c1.68-.606,5.211-4.629,8.39-5.059a8.253,8.253,0,0,0-5.035.668c-1.5.63-2.583,1.253-3.549.433a49.3,49.3,0,0,1,4.321-3.147,3.148,3.148,0,0,0,2.265-.107c1.042-.364,1.648-2.064,3.241-1.814-.568-.62.651-1.887,1.308-2.614a1.918,1.918,0,0,0,2.618.9c1.4-.717,1.25-3.1,1.25-3.663,2.223-.935,4.384-1.849,4.141.225,4.259-3.234-6.707-4.661-2.306-7.282l-.242,1.025c1.129-.447,1.6-1.26,1.233-1.749-.28-.346-.364-.7-.083-.97-.741-.45-1.911-.007-3.158.443a5.684,5.684,0,0,1-3.362.526,7.431,7.431,0,0,1,1.877-.658s-2.386-1.2-3.352-.544c-.3.623-1.78.907-2.122,1.219-.544.457-1.129,1.066-.967,1.613-1.658.488-2.33,1.541-2.971,1.423-.81.824-2.2,1.385-3.293,3.134a9.569,9.569,0,0,1,4.356-1.929c-.713,1.208-1.891.693-2.995,2.185-.5.7-1.167.627-1.842.561a3.085,3.085,0,0,0-1.142.017c-1.5.443-5.028,3.632-6.232,5.685-1.451.564-2.894,2.483-4.854,2.611,3.289-1.756,6.007-6.07,8.538-8.313a3.949,3.949,0,0,0-2.566,1.458c-.661.821-1.042.63-1.887,1.226-.554.419-1.565,1.423-1.565,1.423l1.579-.454-2.472,1.3c.793-.689-.585-1.257-1.807-.5-.648.364-.9.5-.9.5-1.347.218-12.648,1.974-15.508,2.4,1.267-.571,5.173-1.523,6.61-1.967,15.269-4.768,25.231-24.712,45.507-17.627,5.426,1.908,13.85-.907,19.739-5.038,20.868-14.584,16.987-19.556,36.761-21.2,7.389-.616,21.446-11.436,25.8-14.709-7.67,3.334-12.625,1.922-17.281,4.176a26.388,26.388,0,0,1-14.365,2.625,12.285,12.285,0,0,1-3.729-.89,2.978,2.978,0,0,0-2.244-.623,23.016,23.016,0,0,1-4.1.024c-.5.235-.117.2-.519.36-1.489-.125-4.317-.031-4.269-.405-1.191.772-3.753.28-4.931.935l-.554-.249c-.177.017-.128.111-.139.149-.589-.149.374-.692-.405-.689.135.239-.419.4-.882.5-.219-.194-1.628.346-3.047.886a12.479,12.479,0,0,1-2.974.921c1.423-.384,2.649-1.278,4.189-1.617-.2-.038-1.624.28-1.932.322,0-.222-1.15.142-2.265.512a6.975,6.975,0,0,1-2.077.557.9.9,0,0,0-.419-.014c-.212.028-.4.052-.437-.145a7.84,7.84,0,0,0-3.286-.09l-.741.294a1.5,1.5,0,0,1-1.381.042c.651-.1,1.381-.246,1.447-.744a8.831,8.831,0,0,1,3.366-.045c-1.226-.63-2.936-.367-3.172-.928-.679-.007-1.6-.436-2.237.3-.367.208-.53,0-1.084.222a1.521,1.521,0,0,1-.651.118,2.561,2.561,0,0,0-.568.028,2.124,2.124,0,0,0-1.035-.488c-.107.18.163.329-.509.436a2.137,2.137,0,0,1-1.457-.551c-1.087.177-2.334.1-1.4.859-1.9-.928,1.226-2.978-.845-2.919l.346-.28a.873.873,0,0,1,.723.4c.323-.3.959-.544,1.437-.876.343-.142,1.278-.6,1.351-.641-.069.024-.848.087-.914.121.062-.27,1.987-.606,2.212-.789a2.414,2.414,0,0,0,.668-.028c.5-.042,1.046-.094,1.156.225a3.759,3.759,0,0,0-1.627.374.894.894,0,0,0,.624.055c.211-.052.395-.09.568.121.609.218,1.4-.218,1.652-.26a14.632,14.632,0,0,1,2.926.384,25.921,25.921,0,0,0,3.1-.852,22.354,22.354,0,0,1-4.477-.121,2.425,2.425,0,0,0,.776-.073,1.966,1.966,0,0,1,.481-.08l.769.035.17-.007s-.052-.37.651-.44l.232.048c.574-.253,3.556-1.776,4.051-2.019a15.711,15.711,0,0,0,2.126-.412v-.055c0,.263.3.215.62.163s.634-.094.686.156c.429-.066.862-.184.914-.4a2.416,2.416,0,0,1,1.406-.035,2.239,2.239,0,0,0,1.7-.166l.177.481a3.083,3.083,0,0,0,1.6-.44,7.3,7.3,0,0,1,1.412.1c3.165.8,5.326.142,7.586-.246,1.388-.242,3.535-.776,4.643-.433-.651-.769-2.828-.19-2.85-.769,6.375-.492,14.45-2.874,21.267-4.55a15.28,15.28,0,0,1,3.836-.291c.412,0,.828.01,1.257,0a6.6,6.6,0,0,0,2.773-.606c1.606-.717,3.951-1.783,4.37-1.6,2.15-.526,1.686-.076,3.653-.949a1.811,1.811,0,0,0,1.738-.069c.921-.429,1.8-.824,2.687-1.243,1.984-.665,4.266-1.264,6.457-2.181,0-.312-.083-1.226,3-.585,1.094-.274,1.108-.938,2.074-.893a35.444,35.444,0,0,1,2.974-2.1c5.031-1.648,11.318-2.715,17.212-4.491l.866-.412c1.07,0,16.2-8.026,16.782-7.756.173-.159.593-.367.537-.5,2.694-1.278,4.906-1.61,7.645-2.915a.206.206,0,0,0-.079.021c5.072-2.566,10.927-4.913,15.436-7.164a7.868,7.868,0,0,0,3.251-.776c1.7-1.039,3.639-2.174,5.616-3.324,3.563-2.039,7.344-4.148,10.983-6.122,4.563-2.517,9.3-3.043,13.642-5.356l10.09-4.937c5.183-2.05,9.754-3.94,15.262-6.032a13.122,13.122,0,0,1,3.559-.263,13.615,13.615,0,0,0,3.511-.246c10.366-3.552,21.079-9.6,31.041-13.327.315,1.035-13.033,5.962-14.127,8.961-11.606,6.665-7.5,3.127-19.13,9.778-3.03,1.749-12.583,4.841-15.643,6.6a753.833,753.833,0,0,1,100.813-24.86c.512-.028,1.021-.007,1.537.007a13.6,13.6,0,0,0,2.327-.052c5.118-1.288,10.654-.883,16.021-1.326,5.775-.5,12.053-1.167,17.038-1.849a3.623,3.623,0,0,1,2.833.62c4.3-.388,12.679-.017,16.335-.505a10.8,10.8,0,0,1,4.075.17,7.1,7.1,0,0,0,2.206.27c.076-.36.433-.263.62-.343.121.194.353.228.775.228,1.475.021,4.872-.405,8.615-.564a63.15,63.15,0,0,1,8.029-.08c3.508.2,12.88,2.431,15.235,2.445a8.7,8.7,0,0,0,3.739-.651,1.288,1.288,0,0,0,1.035.055,2.242,2.242,0,0,1,1.011-.055c1.873,1.607,3.064,1.042,2.662.585a13.532,13.532,0,0,1,2.933.256,17.7,17.7,0,0,0,3.147.263c.814-.017,1.756-.062,2.666-.076a1.384,1.384,0,0,1,1.333.623c1.928,0,1.69.53,3.338.727a50.967,50.967,0,0,0,5.519-.152,40.316,40.316,0,0,1,4.751-.142l-6.735.9c2.261.443,5.377,1.174,7.593,1.569,4.56,1.219,10.751,2.192,14.186,3.109A54.82,54.82,0,0,0,1825.319,173a68.031,68.031,0,0,1,9.512.834,68.868,68.868,0,0,0-28.648,8.113c-1.34-.284-4.072-.18-4.4.648a.318.318,0,0,1,.194.544c-.25.246-.422-.024-.63.377a4.448,4.448,0,0,0-2.75.3,5.407,5.407,0,0,1-1.952.422c.02.381,1.62.464,2.036.381a4.167,4.167,0,0,1,1.779-.093c-.557.256-.758.364-1.672.81a6.1,6.1,0,0,1-3.2.294,1.508,1.508,0,0,1-.578.526c-.183.062-2.243,1.181-2.618,1.264-1.378.291-4.4.087-7.209.866a7.439,7.439,0,0,1-3.04.1,1.344,1.344,0,0,0-1.71.748c-.118.5-.755.5-1.288.405.612-.37-.406-.938-1.14-.564-.339.194-1.16.834-1.16.834.336-.052.235.246-.1.544a1.988,1.988,0,0,1-1.544.53,4.565,4.565,0,0,0-3.795,1.378c1.125.783,1.308,1.766-.236,2.566-.637-.1.038-.737-.775-.606-.956.173-3.775,1.451-4.547,1.641-.716.18-.762,1.039-.844,1.354a2.3,2.3,0,0,1-1.281.855c-1.008.364-2.417,0-1.614-.9a2.9,2.9,0,0,0-1.5,2.874,2.355,2.355,0,0,0,1.554,2.012c.035.038.049.076.08.111.132.107.187.242-.034.377.349,1.336,3.59,1.728,4.3,1.316.114-.291.381-.35.758-.377.443-.045,2.908-1.62,3.459-1.388.526-.519,1.873-.2,2.455-1.613a2.8,2.8,0,0,1-2.5.5c.586-.616,1.3-.139,1.576-.848.741-.648,1.565.014,1.9.322,1.749-.71,4.671-3.282,8.383-3.739a20.263,20.263,0,0,0-6.368,3.175,1.181,1.181,0,0,0,1.364.242,2.753,2.753,0,0,1,.661-.1c-.547-.447.253-.692.8-.755a6.469,6.469,0,0,1,2.168.277,56.137,56.137,0,0,0,7.389.194,10.229,10.229,0,0,0,3.369-.5s1.544-.786,1.454-1.361c.617-.135,1.3-.194,1.458.083,1.891-.014,4.284-1.458,6.333-1.195l-2.482-.873a3.232,3.232,0,0,1,1.468-.007,3.847,3.847,0,0,0,2.043-.125,51.119,51.119,0,0,0,7.362-.485c12.067-1.634,34.69-6.714,41.137-8.372,10.827-2.749,10.568-2.136,22.112,1.852,1.717.571,6.249,1.167,10.512,7.662a104.559,104.559,0,0,0,10.426,13.576c7.285,7.752,15.273,9.439,20.342,9.529,4.885.059,10.782-4.4,12.936-6.451.36-.325,2.285-2.032,2.285-2.032a2.531,2.531,0,0,1-1.925-3.033c1.863,1.156,3.813,2.483,5.388-.592,1.122-2.213,5.633-5.949,5.935-6.544,1.322-2.5.346-5.53.107-6.322-3.864-.969-.131-5.689-4.2-6.589l.661-.3c1.513-.18,1.219,1.226,2.7,1.523.979-3.206-.108-4.626.512-7.659a.608.608,0,0,1,.838.045.574.574,0,0,0,.662.135c-.319-2.393,4.622-2.507,4.8-4.771.018-.332-.149-1.181-.935-1.208-.381,0-.564-.184-.855-.724a1.532,1.532,0,0,0,1.035.1,1.991,1.991,0,0,1-.98-1.278c1.43-.277,2.265-.623,2.535-2.071.315-1.655,1.928-12.209,4.106-18.258a1.544,1.544,0,0,0,.662-1.586c-.038-.28.27-.409.509-.5a.665.665,0,0,0,.333-.963c-.333-.426-.443-.1-.468-.464.149-.651.405-.467.654-.945a12.345,12.345,0,0,0,.422-2.718c.121-1.288.1-2.278.184-3.421a2.1,2.1,0,0,0,.637-1.683V141.1a3.327,3.327,0,0,0-.582-2.015c-.031-3.6-5.2-17.413-6.728-20.771a3.054,3.054,0,0,0,.218-1.568,5.675,5.675,0,0,0-1.385-2.628c-.1-1.433,1.718-3.6,3.117-.4,1.409-4.809-8.826-5.27-9.436-8.206-.107-.481.1-.789.45-.776-.021-.4-.353-.6-.758-.779a.7.7,0,0,0-.513-.3c-.308-.166-.384-.114-.623-.613-.214-.471-.606-.229-.931-.682-11.53-16.516-24.476-20.567-47.681-26.883a140.141,140.141,0,0,0-35.608-4.321c-2.96,0-5.987.083-9.051.26-44.876,2.625-83.912,6.378-124.9,11.156-79.8,9.311-158.068,26.072-234.388,51.352C1420.912,154.8,1381.2,167.7,1316.179,181.258c-17.51,3.653-41.5,3.435-59.315-1.388-17.482-4.716-36.4-1.364-40.7,19.327-2.756,13.3-8.667,22.135-15.172,36.882-7.237,16.433-10.561,36.439-10.561,56.438,0,10.031.381,22.98,2.012,30.667,5.311,25.13,28.763,41.169,52,41.169,12.327,0,20.827-1.828,28.971-9.2,2.289-2.074,4.494-4.068,6.492-6.191a52.015,52.015,0,0,1,7.392-6.485c.6-.436,1.246-.893,1.98-1.388.782.353,1.337.481,2.922-.377,1.544-.848,9.231-1.132,9.6-3.324a.765.765,0,0,1-.606-.294.559.559,0,0,1,.308-.831c.932.81,5.36-.474,6.254-2.476-.242-.606-2.3-.838-2.223-.256a1.347,1.347,0,0,1-.122.741c-2.143.2-3.673-.821-4.8-1.1a12.1,12.1,0,0,0,5.2-1.42,11.775,11.775,0,0,1,4.906-1.423s.211-1.125.841-1.385c.485-.184.807.042.734.312,1.063-1.208-.779-1.156-.149-2.2.01.668,1.658.374,2.735.007.541-1.077,17.617-4.349,18.524-5.557-5.678,2.32-8.382.9-11.99,2.247a4.94,4.94,0,0,1,1.5-.893c-.51-.194,10.339-1.987,10.771-2.936a3.448,3.448,0,0,1,2.375-1.575C1337.026,318.932,1338.37,317.37,1338.37,317.37Z" transform="translate(-1190.433 -71.162)" fill="url(#linear-gradient)"/>
</svg>
