<svg id="Layer_3" data-name="Layer 3" xmlns="http://www.w3.org/2000/svg" viewBox="0 0 372.54 92.38"><defs><style>.cls-1{fill:#c12133;}</style></defs><title>The Opus by Omniyat -text</title><polygon points="282.85 69.53 289.31 69.53 289.31 66.23 272.8 66.23 272.8 69.53 279.25 69.53 279.25 86.55 282.85 86.55 282.85 69.53"/><polygon points="238.28 86.55 234.67 86.55 234.67 79.62 226.6 66.23 230.81 66.23 236.51 76.31 242.26 66.23 246.35 66.23 238.28 79.54 238.28 86.55"/><rect x="215.03" y="66.23" width="3.58" height="20.33"/><polygon points="202 66.23 205.51 66.23 205.51 86.55 202.52 86.55 191.3 72.08 191.3 86.55 187.79 86.55 187.79 66.23 191.11 66.23 202 80.28 202 66.23"/><polygon points="175.64 71.98 175.64 86.55 179.2 86.55 179.2 66.23 175.41 66.23 169.21 75.84 163.04 66.23 159.23 66.23 159.23 86.55 162.73 86.55 162.73 72.04 169.11 81.56 169.21 81.56 175.64 71.98"/><path d="M624.8,297.23a10.44,10.44,0,0,0-10.67,10.54,10.32,10.32,0,0,0,10.6,10.49,10.43,10.43,0,0,0,10.67-10.54A10.33,10.33,0,0,0,624.8,297.23Zm0,17.75a7,7,0,0,1-6.93-7.26,6.88,6.88,0,0,1,6.86-7.2,7,7,0,0,1,6.92,7.26A6.88,6.88,0,0,1,624.8,315Z" transform="translate(-484.56 -231.35)"/><polygon class="cls-1" points="264.86 86.54 268.71 86.54 257.75 65.94 247.61 86.54 251.27 86.54 257.79 73.27 264.86 86.54"/><path d="M586.23,323.73a0.3,0.3,0,0,1-.32-0.31V321a0.3,0.3,0,0,1,.32-0.3h0.54a2.14,2.14,0,0,0,2.21-1.74l0.41-1.26L584,303.83a0.24,0.24,0,0,1,.27-0.31h3a0.39,0.39,0,0,1,.37.31l3.32,9.61H591l3.17-9.61a0.38,0.38,0,0,1,.38-0.31h2.9a0.22,0.22,0,0,1,.23.31l-5.61,15.32c-1.28,3.47-2.51,4.57-4.94,4.57h-0.94Z" transform="translate(-484.56 -231.35)"/><path d="M580.27,306.72a5,5,0,0,0-5.1-3.53,4.43,4.43,0,0,0-3.92,1.74h0v-7.14a0.29,0.29,0,0,0-.3-0.31h-2.81a0.29,0.29,0,0,0-.32.31v20.14a0.29,0.29,0,0,0,.32.29h2.81a0.29,0.29,0,0,0,.3-0.29v-1.11h0a4.43,4.43,0,0,0,3.92,1.74,5,5,0,0,0,5.1-3.54A17.2,17.2,0,0,0,580.27,306.72Zm-3.28,6.9a2.92,2.92,0,0,1-5.47,0,12.85,12.85,0,0,1,0-5.49,2.91,2.91,0,0,1,5.47,0A12.38,12.38,0,0,1,577,313.62Z" transform="translate(-484.56 -231.35)"/><polygon points="12.83 41.26 12.83 5.2 0 5.2 0 0.7 30.77 0.7 30.77 5.2 17.88 5.2 17.88 41.26 12.83 41.26"/><polygon points="80.69 41.26 80.69 22.65 56.98 22.65 56.98 41.26 51.93 41.26 51.93 0.7 56.98 0.7 56.98 18.15 80.69 18.15 80.69 0.7 85.74 0.7 85.74 41.26 80.69 41.26"/><polygon points="107.96 41.26 107.96 0.7 134.53 0.7 134.53 5.2 113.01 5.2 113.01 18.27 134.11 18.27 134.11 22.78 113.01 22.78 113.01 36.76 134.53 36.76 134.53 41.26 107.96 41.26"/><path d="M748.24,244.28c0-4.56-3.28-7.72-8.09-7.72H729.51V252h10.64c4.8,0,8.09-3.16,8.09-7.72m-23.77,28.33V232.05h16.29c8.15,0,12.71,5.59,12.71,12.22s-4.68,12.22-12.71,12.22H729.51v16.11h-5Z" transform="translate(-484.56 -231.35)"/><path d="M773.49,256.86V232.05h5v24.69c0,7.42,4,12.1,11.49,12.1s11.49-4.68,11.49-12.1V232.05h5V256.8c0,10.09-5.53,16.54-16.54,16.54s-16.54-6.51-16.54-16.48" transform="translate(-484.56 -231.35)"/><path d="M826.58,266.89l3-3.83a17.13,17.13,0,0,0,12.77,5.78c7.24,0,9.55-3.89,9.55-7,0-10.46-24-4.68-24-19.15,0-6.69,6-11.25,13.92-11.25,6.2,0,11,2.07,14.41,5.65l-3,3.71a15.51,15.51,0,0,0-11.74-4.86c-4.86,0-8.33,2.61-8.33,6.44,0,9.12,24,3.89,24,19,0,5.9-4,11.91-15,11.91-7.05,0-12.22-2.68-15.57-6.44" transform="translate(-484.56 -231.35)"/><path d="M683.47,236.58a15.75,15.75,0,1,0,15.75,15.75,15.75,15.75,0,0,0-15.75-15.75m21,15.75a21,21,0,1,1-21-21,21,21,0,0,1,21,21" transform="translate(-484.56 -231.35)"/></svg>