<svg id="Layer_1" data-name="Layer 1" xmlns="http://www.w3.org/2000/svg" viewBox="0 0 401.69 93.9"><defs><style>.cls-1{fill:#231f20;}.cls-2{fill:#c72035;}.cls-3{fill:#fff;}.cls-4{font-size:16.25px;fill:#58595b;font-family:DINPro Medium;}</style></defs><title>Omniyat Details Make Perfection</title><polygon class="cls-1" points="124.21 0 124.21 52.74 115.62 52.74 115.62 15.97 99.95 39.61 84.21 15.95 84.21 52.74 75.65 52.74 75.65 0 83.06 0 99.95 25.23 116.75 0 124.21 0"/><polygon class="cls-1" points="184.83 37.69 152.12 0 145.4 0 145.4 52.74 154 52.74 154 15.04 186.81 52.74 193.43 52.74 193.43 0 184.83 0 184.83 37.69"/><rect class="cls-1" x="215.52" width="8.62" height="52.74"/><polygon class="cls-1" points="284.44 0 269.97 26.49 255.45 0 245.28 0 265.65 35.67 265.65 52.74 274.27 52.74 274.27 35.67 294.63 0 284.44 0"/><polygon class="cls-1" points="361.13 0 361.13 7.99 377.09 7.99 377.09 52.74 385.74 52.74 385.74 7.99 401.69 7.99 401.69 0 361.13 0"/><polygon class="cls-2" points="298.51 52.74 307.61 52.74 324.88 18.91 342.11 52.74 351.25 52.74 324.86 0 298.51 52.74"/><path class="cls-3" d="M100.58,52.85A26.72,26.72,0,0,0,81.35,45.2a26.59,26.59,0,0,0-19.18,7.65,25.22,25.22,0,0,0-7.9,18.74,25.19,25.19,0,0,0,7.9,18.69,26.58,26.58,0,0,0,19.18,7.66,26.69,26.69,0,0,0,19.22-7.66,26,26,0,0,0,0-37.43M94.5,84.51a17.58,17.58,0,0,1-13,5.28,17.88,17.88,0,0,1-13.14-5.28A17.34,17.34,0,0,1,63,71.59a17.35,17.35,0,0,1,5.35-13,17.86,17.86,0,0,1,13.14-5.29A18.05,18.05,0,0,1,99.8,71.59a17.35,17.35,0,0,1-5.3,12.92" transform="translate(-54.28 -45.2)"/><path class="cls-1" d="M100.58,52.85A26.72,26.72,0,0,0,81.35,45.2a26.59,26.59,0,0,0-19.18,7.65,25.22,25.22,0,0,0-7.9,18.74,25.19,25.19,0,0,0,7.9,18.69,26.58,26.58,0,0,0,19.18,7.66,26.69,26.69,0,0,0,19.22-7.66,26,26,0,0,0,0-37.43M94.5,84.51a17.58,17.58,0,0,1-13,5.28,17.88,17.88,0,0,1-13.14-5.28A17.34,17.34,0,0,1,63,71.59a17.35,17.35,0,0,1,5.35-13,17.86,17.86,0,0,1,13.14-5.29A18.05,18.05,0,0,1,99.8,71.59a17.35,17.35,0,0,1-5.3,12.92" transform="translate(-54.28 -45.2)"/><text class="cls-4" transform="translate(72.31 89.84)">DETAILS MAKE PERFECTION</text></svg>