<svg xmlns="http://www.w3.org/2000/svg" xmlns:xlink="http://www.w3.org/1999/xlink" width="557.228" height="405.21" viewBox="0 0 557.228 405.21">
  <defs>
    <linearGradient id="linear-gradient" x1="-17.976" y1="1.602" x2="32.167" y2="-1.416" gradientUnits="objectBoundingBox">
      <stop offset="0" stop-color="#e6c273"/>
      <stop offset="0.097" stop-color="#e0bc6d"/>
      <stop offset="0.225" stop-color="#d1ab5f"/>
      <stop offset="0.37" stop-color="#b98f48"/>
      <stop offset="0.528" stop-color="#976927"/>
      <stop offset="0.568" stop-color="#8e5f1e"/>
      <stop offset="0.675" stop-color="#86581c"/>
      <stop offset="0.841" stop-color="#704617"/>
      <stop offset="1" stop-color="#553011"/>
    </linearGradient>
    <linearGradient id="linear-gradient-2" x1="-7.782" y1="1.959" x2="11.928" y2="-1.601" xlink:href="#linear-gradient"/>
    <linearGradient id="linear-gradient-3" x1="-7.123" y1="2.246" x2="8.42" y2="-1.314" xlink:href="#linear-gradient"/>
    <linearGradient id="linear-gradient-4" x1="-13.087" y1="2.484" x2="11.287" y2="-1.075" xlink:href="#linear-gradient"/>
    <linearGradient id="linear-gradient-5" x1="-74.073" y1="2.613" x2="51.536" y2="-0.946" xlink:href="#linear-gradient"/>
    <linearGradient id="linear-gradient-6" x1="-11.634" y1="2.776" x2="7.347" y2="-0.784" xlink:href="#linear-gradient"/>
    <linearGradient id="linear-gradient-7" x1="-11.147" y1="3.011" x2="5.678" y2="-0.549" xlink:href="#linear-gradient"/>
    <linearGradient id="linear-gradient-8" x1="-13.929" y1="3.189" x2="5.172" y2="-0.371" xlink:href="#linear-gradient"/>
    <linearGradient id="linear-gradient-9" x1="-12.383" y1="3.346" x2="4.173" y2="-0.252" xlink:href="#linear-gradient"/>
    <linearGradient id="linear-gradient-10" x1="-14.327" y1="3.443" x2="3.551" y2="-0.155" xlink:href="#linear-gradient"/>
    <linearGradient id="linear-gradient-11" x1="-4.42" y1="1.232" x2="3.14" y2="0.107" xlink:href="#linear-gradient"/>
    <linearGradient id="linear-gradient-12" x1="-0.791" y1="0.79" x2="4.217" y2="-0.335" xlink:href="#linear-gradient"/>
    <linearGradient id="linear-gradient-13" x1="-2.247" y1="1.019" x2="3.701" y2="-0.105" xlink:href="#linear-gradient"/>
    <linearGradient id="linear-gradient-14" x1="-0.126" y1="1.022" x2="1.222" y2="-0.102" xlink:href="#linear-gradient"/>
  </defs>
  <g id="Group_43" data-name="Group 43" transform="translate(43.84 -1368.613)">
    <g id="Group_41" data-name="Group 41" transform="translate(-43.84 1654.375)">
      <path id="Path_117" data-name="Path 117" d="M1161.7,474.248h5.516V436H1161.7v-1.079h15.855c9.267,0,15.861,8.066,15.861,19.944,0,7.448-2.561,13.7-6.706,17.333-3.129,2.73-6.594,3.134-11.374,3.134H1161.7ZM1171.995,436v38.249h3.184c4.545,0,7.555-.455,9.655-3.236,2.393-3.184,3.19-8.244,3.19-15.462,0-13.873-1.876-19.551-10.8-19.551Z" transform="translate(-1077.915 -426.58)" fill="#1a1818"/>
      <path id="Path_118" data-name="Path 118" d="M1211.942,459.443c0,8.071-4.948,14.041-10.514,14.041s-10.519-5.971-10.519-14.041,4.943-13.979,10.519-13.979c5.511,0,10.514,5.909,10.514,13.979m-16.317,0c0,8.869,1.078,13.076,5.8,13.076s5.8-4.206,5.8-13.076c0-8.812-1.141-13.069-5.8-13.069-4.724,0-5.8,4.257-5.8,13.069" transform="translate(-1070.914 -424.052)" fill="#1a1818"/>
      <path id="Path_119" data-name="Path 119" d="M1225.569,445.464a3.864,3.864,0,0,1,3.813,4.033,2.575,2.575,0,0,1-2.561,2.786,2.235,2.235,0,0,1-2.331-2.331,2.19,2.19,0,0,1,2.157-2.388,2.528,2.528,0,0,1,1.707.741,3.1,3.1,0,0,0-3.067-1.932c-3.241,0-6.307,5-6.307,12.957v12.559h3.976v.916h-12.1v-.916h3.92V447h-3.92v-.91h7.9l.231,6.537c1.308-4.718,3.521-7.161,6.588-7.161" transform="translate(-1066.132 -424.052)" fill="#1a1818"/>
      <path id="Path_120" data-name="Path 120" d="M1238.739,473.488c-5.516,0-10.508-5.971-10.508-13.986a16.012,16.012,0,0,1,4.544-11.367,8.731,8.731,0,0,1,6.532-2.674,6.687,6.687,0,0,1,6.65,6.769c0,2.213-1.252,3.516-2.954,3.516a2.624,2.624,0,0,1-2.668-2.663,2.55,2.55,0,0,1,2.611-2.673,2.683,2.683,0,0,1,2.046,1.017c-.624-3.236-2.781-5.056-5.741-5.056-5.572,0-6.307,4.723-6.307,14.267,0,8.014,1.19,11.822,5.971,11.822,4.262,0,7.441-3.578,7.9-9.84h.905c-.562,6.941-3.977,10.868-8.976,10.868" transform="translate(-1061.966 -424.053)" fill="#1a1818"/>
      <path id="Path_121" data-name="Path 121" d="M1261.006,449.409c-3.634,0-6.992,4.774-6.992,12.5V474.42h3.92v.91h-12.1v-.91h3.977V435.879h-3.977v-.96h8.184v20.916c1.252-5.061,4.38-7.841,8.071-7.841,3.864,0,6.65,3.18,6.65,8.869V474.42h3.926v.91h-12.1v-.91h3.976v-19.5c0-3.7-1.2-5.516-3.527-5.516" transform="translate(-1057.746 -426.58)" fill="#1a1818"/>
      <path id="Path_122" data-name="Path 122" d="M1289.463,464.613c-1.023,5.683-4.376,8.874-8.807,8.874-6.077,0-10.918-6.028-10.918-14.21a15.7,15.7,0,0,1,4.156-10.8,8.278,8.278,0,0,1,6.364-3.011c5,0,9.093,4.943,9.318,13.3H1274.46c-.056,1.017-.113,2.044-.113,2.949,0,7.336,1.927,10.744,6.707,10.744,3.465,0,6.475-2.841,7.441-7.845Zm-4.432-6.758c.056-1.084.056-2.111.056-3.015,0-5.853-1.078-8.47-4.886-8.47-3.982,0-5.516,3.645-5.684,11.485Z" transform="translate(-1052.014 -424.052)" fill="#1a1818"/>
      <path id="Path_123" data-name="Path 123" d="M1299.594,472.519a5.027,5.027,0,0,0,5.056-5.173c0-3.64-2.9-5.061-7.785-7.56-4.146-2.156-6.707-3.521-6.707-7.616a6.485,6.485,0,0,1,6.594-6.706c2.044,0,4.038,1.017,5.971,3.123l3.01-2.5h.118v9.947h-.629c-1.421-6.139-4.892-9.6-8.47-9.6a3.584,3.584,0,0,0-3.864,3.465c0,3.236,2.555,4.319,6.308,6.2,5.228,2.617,7.958,4.661,7.958,9.211,0,4.712-3.292,8.184-7.5,8.184a8.715,8.715,0,0,1-6.819-3.7l-2.617,3.123h-.623V461.887h.623c1.707,6.879,5.347,10.632,9.379,10.632" transform="translate(-1047.254 -424.052)" fill="#1a1818"/>
      <path id="Path_124" data-name="Path 124" d="M1305.96,449.128v-.909h4.319v-8.128a5.405,5.405,0,0,0,4.2-3.521V448.22h5v.909h-5v21.939c0,2.331.347,3.409,1.987,3.409,2.162,0,3.758-2.049,4.039-5.858h.91c-.343,4.611-2.332,7-5.679,7-3.645,0-5.459-1.938-5.459-5.745V449.128Z" transform="translate(-1043.33 -426.184)" fill="#1a1818"/>
      <path id="Path_125" data-name="Path 125" d="M1340.856,464.613c-1.022,5.683-4.375,8.874-8.807,8.874-6.082,0-10.918-6.028-10.918-14.21a15.694,15.694,0,0,1,4.151-10.8,8.3,8.3,0,0,1,6.37-3.011c5,0,9.092,4.943,9.318,13.3h-15.115c-.056,1.017-.111,2.044-.111,2.949,0,7.336,1.927,10.744,6.706,10.744,3.465,0,6.476-2.841,7.436-7.845Zm-4.431-6.758c.056-1.084.056-2.111.056-3.015,0-5.853-1.085-8.47-4.892-8.47-3.977,0-5.51,3.645-5.684,11.485Z" transform="translate(-1039.693 -424.052)" fill="#1a1818"/>
      <path id="Path_126" data-name="Path 126" d="M1354.743,445.464a3.859,3.859,0,0,1,3.809,4.033,2.572,2.572,0,0,1-2.561,2.786,2.235,2.235,0,0,1-2.326-2.331,2.187,2.187,0,0,1,2.157-2.388,2.525,2.525,0,0,1,1.707.741,3.109,3.109,0,0,0-3.066-1.932c-3.247,0-6.314,5-6.314,12.957v12.559h3.977v.916h-12.1v-.916h3.926V447h-3.926v-.91h7.9l.229,6.537c1.309-4.718,3.522-7.161,6.594-7.161" transform="translate(-1035.163 -424.052)" fill="#1a1818"/>
      <path id="Path_127" data-name="Path 127" d="M1401.584,434.414l-4.774,18.3h-.8c.118-1.2.118-2.393.118-3.7,0-8.925-2.505-13.586-6.931-13.586-3.123,0-6.082,2.617-8.868,7.784-4.606,8.47-6.819,16.49-6.819,23.477,0,5.516,2.443,8.351,6.987,8.351,5.516,0,10.064-4.655,13.816-14.148l1.016.337c-3.92,9.9-8.919,14.9-14.546,14.9-6.936,0-11.761-5.92-11.761-14.557a30.257,30.257,0,0,1,4.313-14.834c4.606-8.071,10.745-12.334,15.805-12.334,2.269,0,3.976.972,5.791,2.9,1.022,1.084,1.534,1.938,2.336,1.938,1.36,0,2.444-1.769,3.354-4.836Z" transform="translate(-1028.212 -426.701)" fill="#1a1818"/>
      <path id="Path_128" data-name="Path 128" d="M1414.4,454.783a21.189,21.189,0,0,1-2.954,10.57c-3.123,5.291-7.274,8.133-10.969,8.133-3.746,0-7.161-3.987-7.161-9.778a21.763,21.763,0,0,1,4.319-12.447c2.668-3.751,6.537-5.8,9.784-5.8,3.92,0,6.981,3.578,6.981,9.318m-11.475-5.341a42.676,42.676,0,0,0-4.724,11.081,30.382,30.382,0,0,0-1.527,8.015c0,2.444,1.478,3.92,3.629,3.92,1.881,0,3.421-1.19,4.779-3.634,4.437-8.015,6.083-14.956,6.083-18.354,0-2.618-1.365-4.1-3.7-4.1-1.594,0-3.234,1.085-4.544,3.073" transform="translate(-1022.386 -424.052)" fill="#1a1818"/>
      <path id="Path_129" data-name="Path 129" d="M1415.3,473.566c0,.91.517,1.483,1.191,1.483,2.049,0,4.549-3.471,8.133-10.233l.8.4c-3.64,7.049-6.488,10.8-8.812,10.8-2.044,0-3.813-2.28-3.813-5.8a27.322,27.322,0,0,1,1.769-7.678l7.672-22.849a8.577,8.577,0,0,0,.624-2.5c0-1.022-.684-1.308-2.617-1.308h-2.275l.286-.967h9.666l-12.1,36.317a7.373,7.373,0,0,0-.517,2.331" transform="translate(-1017.717 -426.581)" fill="#1a1818"/>
      <path id="Path_130" data-name="Path 130" d="M1429.1,473.566c0,.91.517,1.483,1.19,1.483,2.051,0,4.543-3.471,8.133-10.233l.792.4c-3.64,7.049-6.481,10.8-8.8,10.8-2.056,0-3.82-2.28-3.82-5.8a27.09,27.09,0,0,1,1.764-7.678l7.672-22.849a8.646,8.646,0,0,0,.63-2.5c0-1.022-.686-1.308-2.617-1.308h-2.275l.287-.967h9.66l-12.1,36.317a7.373,7.373,0,0,0-.517,2.331" transform="translate(-1014.409 -426.581)" fill="#1a1818"/>
      <path id="Path_131" data-name="Path 131" d="M1458.484,462.173c-3.864,7.56-7.846,11.316-12.5,11.316-4.376,0-7.329-3.532-7.329-9.1a19.052,19.052,0,0,1,3.577-10.856c3.753-5.4,8.015-8.071,10.914-8.071a5.4,5.4,0,0,1,5.516,5.454c0,4.892-5.235,8.981-15.064,10.406a19.956,19.956,0,0,0-1.365,6.472c0,3.184,1.254,4.723,3.922,4.723,4.094,0,7.789-3.584,11.485-10.689Zm-2.837-12.676c0-2.046-1.028-3.123-2.5-3.123-3.3,0-6.364,4.655-9.267,13.984,7.341-.915,11.771-5.858,11.771-10.861" transform="translate(-1011.517 -424.052)" fill="#1a1818"/>
      <path id="Path_132" data-name="Path 132" d="M1475.9,462.171c-3.808,7.5-8.071,11.318-12.166,11.318-3.926,0-6.931-3.753-6.931-9.555a19.891,19.891,0,0,1,2.663-9.716c3.246-5.684,7.9-8.756,11.822-8.756,3.416,0,5.4,2.051,5.4,5.459,0,2.382-1.533,4.146-3.578,4.146a2.2,2.2,0,0,1-2.219-2.382c0-1.483.8-2.337,2.5-3.128.916-.455,1.427-.624,1.427-1.253,0-.966-1.252-1.932-3.241-1.932a6.514,6.514,0,0,0-5.291,3.123c-2.386,3.414-3.745,7.846-5.167,13.3a20.715,20.715,0,0,0-.8,5.116c0,3.016,1.247,4.606,3.578,4.606,3.583,0,7.5-3.578,11.143-10.689Z" transform="translate(-1007.164 -424.053)" fill="#1a1818"/>
      <path id="Path_133" data-name="Path 133" d="M1486.054,448.1h5.578l-.343,1.19h-5.622l-7.172,21.428a7.622,7.622,0,0,0-.506,2.331c0,.91.506,1.483,1.2,1.483,2.039,0,4.544-3.471,8.122-10.233l.748.4c-3.7,7.167-6.319,10.8-8.987,10.8-1.989,0-3.69-2.049-3.69-5,0-1.483.622-4.386,1.987-8.475l4.263-12.733H1476.9l.348-1.19h4.712l3.752-11.031h4.033Z" transform="translate(-1002.712 -426.065)" fill="#1a1818"/>
      <path id="Path_134" data-name="Path 134" d="M1496.127,447.676c2.1,0,3.583,1.989,3.583,5.509,0,2.892-1.252,6.144-3.179,10.234-2.05,4.318-3.813,7.155-3.813,9.261,0,1.365.517,2.051,1.477,2.051,2.163,0,5.173-3.64,8.183-10.919l.859.342c-3.134,7.729-6.425,11.542-8.812,11.542-2.156,0-3.982-2.506-3.982-6.088,0-3.179,1.371-5.8,2.792-8.745,2.611-5.4,4.482-8.706,4.482-10.632a1.538,1.538,0,0,0-1.477-1.707c-2.163,0-4.483,3.072-7.724,8.976l-.859-.45c3.416-6.2,5.915-9.374,8.47-9.374m3.758-5.516a2.273,2.273,0,0,1-2.393-2.5,3.423,3.423,0,0,1,3.185-3.409,2.356,2.356,0,0,1,2.442,2.561,3.377,3.377,0,0,1-3.234,3.352" transform="translate(-999.768 -426.262)" fill="#1a1818"/>
      <path id="Path_135" data-name="Path 135" d="M1522.957,454.783a21.3,21.3,0,0,1-2.954,10.57c-3.128,5.291-7.274,8.133-10.963,8.133-3.758,0-7.172-3.987-7.172-9.778a21.734,21.734,0,0,1,4.324-12.447c2.673-3.751,6.537-5.8,9.773-5.8,3.926,0,6.992,3.578,6.992,9.318m-11.48-5.341a42.6,42.6,0,0,0-4.717,11.081,30.4,30.4,0,0,0-1.534,8.015c0,2.444,1.477,3.92,3.639,3.92,1.871,0,3.409-1.19,4.774-3.634,4.432-8.015,6.083-14.956,6.083-18.354,0-2.618-1.371-4.1-3.7-4.1-1.6,0-3.247,1.085-4.55,3.073" transform="translate(-996.361 -424.052)" fill="#1a1818"/>
      <path id="Path_136" data-name="Path 136" d="M1529.958,451.668a12.917,12.917,0,0,0,.792-3.409c0-1.19-.568-1.932-1.365-1.932-1.931,0-4.375,3.864-7.672,11.593l-.91-.281c3.583-8.071,6.027-12.226,8.582-12.226,1.938,0,3.359,2.056,3.359,5.29a38.248,38.248,0,0,1-1.594,8.644c4.032-9.21,7.161-13.816,10.233-13.816,2.207,0,4.033,2.162,4.033,5.627,0,2.668-.916,5.229-1.984,8.133-2,5.223-3.813,8.807-3.813,11.418,0,1.141.455,1.708,1.3,1.708,2.275,0,4.039-3.466,7.336-10.172l.792.388c-3.409,7.172-5.51,10.868-8.184,10.868-2.157,0-4.033-2.162-4.033-5.465a18.455,18.455,0,0,1,1.478-6.65l3.3-7.953a14.066,14.066,0,0,0,1.247-4.943c0-1.37-.506-1.993-1.527-1.993-3.471,0-8.19,8.75-14.328,26.319h-4.089Z" transform="translate(-991.821 -424.065)" fill="#1a1818"/>
      <path id="Path_137" data-name="Path 137" d="M1147.251,429.44v-1.247c-5.818,0-9.649,1.7-11.7,3.067-9.122,6.082-12,18.5-12,27.122s2.875,21.046,12,27.128c2.049,1.37,5.767,3.067,11.7,3.067V487.33c-5.649-.164-9.4-2.326-11.536-5.566-2.522-3.83-3.533-12.036-3.533-23.382s1.011-19.545,3.533-23.376c2.14-3.241,5.886-5.409,11.536-5.566m-41.439,1.82c-2.049-1.365-5.88-3.067-11.693-3.067v1.247c5.651.157,9.4,2.326,11.531,5.566,2.522,3.831,3.533,12.036,3.533,23.376s-1.012,19.552-3.533,23.382c-2.135,3.241-5.88,5.4-11.531,5.566v1.247c5.931,0,9.644-1.7,11.693-3.067,9.127-6.082,12-18.49,12-27.128s-2.87-21.04-12-27.122" transform="translate(-1094.119 -428.193)" fill="#1a1818"/>
    </g>
    <path id="Path_215" data-name="Path 215" d="M1389.518,528.8h4.375V505.49h-4.375Zm-24.5-9.565c1.483-4.555,2.7-8.3,3.268-10.487h.034c.574,1.989,1.686,5.156,3.5,10.487Zm7.818,3.634,2.123,5.931h4.617l-8.391-23.315h-5.46l-8.048,23.315h4.314l2.049-5.931Zm-37.743-4.583h4.717c3.174,0,4.555,1.382,4.555,3.471,0,2.4-1.516,3.611-4.318,3.611h-4.954Zm0-3.432v-5.937h5.121c2.23,0,3.578,1.079,3.578,2.932s-1.079,3.005-3.813,3.005ZM1330.78,528.8h10.07c4.757,0,7.986-2.792,7.986-6.943a5.651,5.651,0,0,0-3.8-5.392,5.2,5.2,0,0,0,3.094-5.055c0-3.1-2.191-5.926-7.582-5.926h-9.767Zm-31.442-23.315v13.851c0,7.577,4.409,9.768,9.536,9.768,5.089,0,9.6-2.057,9.6-9.9V505.49H1314.1v13.952c0,4.617-2.056,6.2-5.156,6.2-2.668,0-5.229-1.381-5.229-6.2V505.49Zm-26.831,3.567h4.184c4.954,0,7.01,3.775,7.01,7.853,0,4.79-2.191,8.329-7.01,8.329h-4.184Zm-4.375,19.748h8.762c7.008,0,11.316-5.083,11.316-11.93,0-6.908-4.442-11.385-11.149-11.385h-8.93Z" transform="translate(-1096.239 1244.715)" fill="#1a1818"/>
    <line id="Line_6" data-name="Line 6" x2="557.228" transform="translate(-43.84 1624.045)" fill="none" stroke="#707070" stroke-miterlimit="10" stroke-width="2"/>
    <g id="Group_42" data-name="Group 42" transform="translate(127.459 1368.613)">
      <g id="Group_24" data-name="Group 24" transform="translate(108.108 176.376)">
        <path id="Path_139" data-name="Path 139" d="M1319.492,365.522c3.072-2.6,4.328-3.393,4.328-7.311V339.96h2.836v17.988c0,3.159-.964,4.3-3.391,6.171-.731.584-2.049,1.433-3.249,2.193Z" transform="translate(-1319.492 -339.96)" fill="url(#linear-gradient)"/>
        <path id="Path_140" data-name="Path 140" d="M1330.294,353.628V339.96h2.815v13.493c0,5.108,2.149,7.43,6.877,7.43,5.137,0,7.023-2.932,7.023-7.748V339.96h1.511V353.4c0,6.007-3.077,8.909-9.231,8.909C1333.485,362.305,1330.294,359.549,1330.294,353.628Z" transform="translate(-1316.902 -339.96)" fill="url(#linear-gradient-2)"/>
        <path id="Path_141" data-name="Path 141" d="M1351.36,362.305h-1.534V339.96h2.949l8.816,14.415,8.725-14.415h2.622v22.345h-2.858V343.261l-8.756,14.3h-1.179l-8.786-14.3Z" transform="translate(-1312.219 -339.96)" fill="url(#linear-gradient-3)"/>
        <path id="Path_142" data-name="Path 142" d="M1373.569,339.96h14.74v1.385h-11.879v8.609H1386.6v1.385h-10.171v9.582h11.879v1.385h-14.74Z" transform="translate(-1306.527 -339.96)" fill="url(#linear-gradient-4)"/>
        <path id="Path_143" data-name="Path 143" d="M1389.381,339.96h2.86v22.345h-2.86Z" transform="translate(-1302.736 -339.96)" fill="url(#linear-gradient-5)"/>
        <path id="Path_144" data-name="Path 144" d="M1396.757,362.305V339.96h6.132c5.308,0,9.172,1.237,9.172,5.57,0,3.421-2.538,5.188-6.6,5.631l10.228,11.144H1412l-9.789-10.731h-2.595v10.731Zm5.78-12.028c3.833,0,6.339-1.091,6.339-4.51s-2.505-4.511-6.369-4.511h-2.89v9.022Z" transform="translate(-1300.967 -339.96)" fill="url(#linear-gradient-6)"/>
        <path id="Path_145" data-name="Path 145" d="M1426.844,353.969h-9.624l-3.51,8.336h-1.638l9.448-22.345h2.4l9.5,22.345h-3.041Zm-.584-1.374-4.241-9.945-4.213,9.945Z" transform="translate(-1297.296 -339.96)" fill="url(#linear-gradient-7)"/>
        <path id="Path_146" data-name="Path 146" d="M1432.1,339.96h2.86v9.994h13.088V339.96h2.86v22.345h-2.86V351.338h-13.088v10.967h-2.86Z" transform="translate(-1292.494 -339.96)" fill="url(#linear-gradient-8)"/>
      </g>
      <g id="Group_25" data-name="Group 25" transform="translate(226.768 48.634)">
        <path id="Path_147" data-name="Path 147" d="M1429.527,251.066h-8.9l-3.325,7.963h-2.1l9.244-22.107h3.181l9.275,22.107h-4.025Zm-.73-1.778-3.733-8.9-3.7,8.9Z" transform="translate(-1415.205 -236.922)" fill="url(#linear-gradient-9)"/>
        <path id="Path_148" data-name="Path 148" d="M1439.2,238.7h-8.136v-1.778h20.095V238.7h-8.166v20.329H1439.2Z" transform="translate(-1411.403 -236.922)" fill="url(#linear-gradient-10)"/>
      </g>
      <g id="Group_26" data-name="Group 26" transform="translate(0 0)">
        <path id="Path_150" data-name="Path 150" d="M1409.061,266.214h-38.646V234.183h38.645v-2.217h-38.645V199.912h38.645V197.7h-47.517v70.738h47.519Z" transform="translate(-1201.303 -197.693)" fill="url(#linear-gradient-11)"/>
        <path id="Path_151" data-name="Path 151" d="M1242.639,257.908a36.062,36.062,0,0,0,51.044,0,35.391,35.391,0,0,0,5.547-7.249,37,37,0,0,0,3.539-8.572,35.852,35.852,0,0,0,1.258-9.474,34.07,34.07,0,0,0-1.258-9.289,35.631,35.631,0,0,0-3.535-8.336,33.7,33.7,0,0,0-5.543-7.047,36.709,36.709,0,0,0-7.238-5.478,35.83,35.83,0,0,0-8.6-3.526,38.415,38.415,0,0,0-19.39,0,35.793,35.793,0,0,0-8.6,3.53,36.489,36.489,0,0,0-7.236,5.475,33.469,33.469,0,0,0-5.542,7.047,35.182,35.182,0,0,0-3.538,8.336,34.162,34.162,0,0,0-1.258,9.289,35.621,35.621,0,0,0,1.261,9.5,36.635,36.635,0,0,0,3.537,8.539A34.969,34.969,0,0,0,1242.639,257.908Zm1.241-38.765a32.521,32.521,0,0,1,4.861-10.724,22.927,22.927,0,0,1,8.145-7.114,24.082,24.082,0,0,1,11.277-2.544,23.6,23.6,0,0,1,11.1,2.544,23.236,23.236,0,0,1,8.143,7.109,33.1,33.1,0,0,1,4.936,10.715,51.834,51.834,0,0,1,1.667,13.484,53.872,53.872,0,0,1-1.667,13.728,34.452,34.452,0,0,1-4.929,10.992,23.714,23.714,0,0,1-8.125,7.333,22.984,22.984,0,0,1-11.121,2.657,22.633,22.633,0,0,1-19.429-9.992,33.833,33.833,0,0,1-4.855-11,55.561,55.561,0,0,1-1.615-13.719A53.22,53.22,0,0,1,1243.88,219.143Z" transform="translate(-1232.291 -197.693)" fill="url(#linear-gradient-12)"/>
        <path id="Path_152" data-name="Path 152" d="M1301.684,210.586h3.549l47.921,57.848h6.159V197.7h-2.762v57.84h-3.546l-47.919-57.84h-6.165v70.738h2.764Z" transform="translate(-1216.316 -197.693)" fill="url(#linear-gradient-13)"/>
      </g>
      <path id="Union_5" data-name="Union 5" d="M263.759,70.742V12.895h-3.5l-27.89,57.847H226.86L198.973,12.895h-3.5V70.742h-2.76V0h8.76l28.143,61.734L257.762,0h8.762V70.742Zm-126.659,0V0h8.869V68.523h38.646v2.219Zm-20.814,0L106.2,46.289H69.525L59.109,70.742H56.02L86.017,0h9.772l29.324,70.742ZM70.4,44.068h34.8L91.326,10.512,84.694,10.5ZM0,70.742V0H37.86a31.967,31.967,0,0,1,9.392,1.353,22.332,22.332,0,0,1,7.508,3.887,18.2,18.2,0,0,1,4.965,6.165,16.929,16.929,0,0,1,1.363,3.964l.089.46q.057.276.1.565c.016.157.02.215.029.268.043.288.08.539.106.811l.033.459c.017.213.037.435.041.653.008.067.016.452.016.452.007.211.017.426.017.64a21.4,21.4,0,0,1-.232,3.212c-.06.427-.124.744-.19,1.063A16.823,16.823,0,0,1,59.727,28a18.328,18.328,0,0,1-4.968,6.16,22.3,22.3,0,0,1-7.507,3.893A31.918,31.918,0,0,1,37.86,39.4H8.874V70.742ZM8.874,36.494H35.916a15.482,15.482,0,0,0,6.17-1.24,15.191,15.191,0,0,0,5.053-3.508,16.918,16.918,0,0,0,3.4-5.552,19.8,19.8,0,0,0,1.23-6.505,19.81,19.81,0,0,0-1.23-6.485,16.744,16.744,0,0,0-3.405-5.547,15.239,15.239,0,0,0-5.052-3.514A15.523,15.523,0,0,0,35.916,2.9H8.874Z" transform="translate(0 88.188)" fill="url(#linear-gradient-14)"/>
    </g>
  </g>
</svg>
