<svg xmlns="http://www.w3.org/2000/svg" xmlns:xlink="http://www.w3.org/1999/xlink" width="288" height="88" viewBox="0 0 288 88">
  <defs>
    <clipPath id="clip-Artboard_1">
      <rect width="288" height="88"/>
    </clipPath>
  </defs>
  <g id="Artboard_1" data-name="Artboard 1" clip-path="url(#clip-Artboard_1)">
    <g id="Group_3" data-name="Group 3" transform="translate(-35.276 -29.204)">
      <g id="Group_2" data-name="Group 2" transform="translate(54.276 45.204)">
        <path id="Path_8" data-name="Path 8" d="M160.189,45.2V78.072h-5.355V55.158l-9.766,14.734-9.81-14.748V78.072h-5.336V45.2h4.622l10.524,15.722L155.535,45.2Z" transform="translate(-82.779 -45.204)" fill="#1a1818"/>
        <path id="Path_9" data-name="Path 9" d="M224.247,68.694,203.865,45.2h-4.185V78.072h5.359V54.58l20.444,23.492h4.125V45.2h-5.36Z" transform="translate(-109.063 -45.204)" fill="#1a1818"/>
        <rect id="Rectangle_2" data-name="Rectangle 2" width="5.372" height="32.868" transform="translate(134.312)" fill="#1a1818"/>
        <path id="Path_10" data-name="Path 10" d="M323.961,45.2l-9.016,16.508L305.895,45.2h-6.336l12.693,22.228V78.072h5.369V67.431L330.312,45.2Z" transform="translate(-146.697 -45.204)" fill="#1a1818"/>
        <path id="Path_11" data-name="Path 11" d="M415.4,45.2V50.18h9.946V78.072h5.392V50.18h9.937V45.2Z" transform="translate(-190.346 -45.204)" fill="#1a1818"/>
        <path id="Path_12" data-name="Path 12" d="M352.787,78.072h5.672l10.762-21.085,10.737,21.085h5.7L369.209,45.2Z" transform="translate(-166.753 -45.204)" fill="#b70727"/>
        <path id="Path_13" data-name="Path 13" d="M83.13,49.968a17.4,17.4,0,0,0-23.932,0,16.274,16.274,0,0,0,0,23.322,17.375,17.375,0,0,0,23.932,0,16.208,16.208,0,0,0,0-23.327M79.346,69.7a10.957,10.957,0,0,1-8.121,3.292,11.147,11.147,0,0,1-8.19-3.292,11.418,11.418,0,0,1,0-16.131,11.134,11.134,0,0,1,8.19-3.3A11.249,11.249,0,0,1,82.647,61.65a10.811,10.811,0,0,1-3.3,8.053" transform="translate(-54.276 -45.204)" fill="#fff"/>
        <path id="Path_14" data-name="Path 14" d="M83.13,49.968a17.4,17.4,0,0,0-23.932,0,16.274,16.274,0,0,0,0,23.322,17.375,17.375,0,0,0,23.932,0,16.208,16.208,0,0,0,0-23.327M79.346,69.7a10.957,10.957,0,0,1-8.121,3.292,11.147,11.147,0,0,1-8.19-3.292,11.418,11.418,0,0,1,0-16.131,11.134,11.134,0,0,1,8.19-3.3A11.249,11.249,0,0,1,82.647,61.65a10.811,10.811,0,0,1-3.3,8.053" transform="translate(-54.276 -45.204)" fill="#1a1818"/>
      </g>
      <path id="Path_15" data-name="Path 15" d="M-139.476-5.351a2.719,2.719,0,0,0,.821-.1,1.805,1.805,0,0,0,.939-.742,3.039,3.039,0,0,0,.42-1.127,4.3,4.3,0,0,0,.074-.761,3.545,3.545,0,0,0-.536-2.1,1.982,1.982,0,0,0-1.728-.747h-1.745v5.577Zm-2.744-6.422h2.942a2.773,2.773,0,0,1,2.324,1.063,3.919,3.919,0,0,1,.737,2.457,4.9,4.9,0,0,1-.435,2.091,2.684,2.684,0,0,1-2.635,1.651h-2.932Zm9.083,0h5.295v.89h-4.336v2.2h4.009v.84h-4.009v2.462h4.41v.865h-5.369Zm13.666,0v.865h-2.447v6.4h-1v-6.4h-2.447v-.865Zm5.6,4.286-1.1-3.209-1.172,3.209Zm-1.617-4.286h1.112l2.635,7.263h-1.078l-.737-2.175h-2.872l-.786,2.175h-1.009Zm6.586,0h.994v7.263h-.994Zm4.312,0h.984v6.4h3.678v.865h-4.662Zm8,4.919a1.985,1.985,0,0,0,.292,1,1.933,1.933,0,0,0,1.725.722,3.054,3.054,0,0,0,1.009-.158,1.121,1.121,0,0,0,.88-1.1.948.948,0,0,0-.371-.845,3.744,3.744,0,0,0-1.177-.43l-.984-.222a4.455,4.455,0,0,1-1.364-.48,1.519,1.519,0,0,1-.692-1.36,2.094,2.094,0,0,1,.677-1.607,2.717,2.717,0,0,1,1.918-.628,3.332,3.332,0,0,1,1.94.551,1.989,1.989,0,0,1,.8,1.762h-.924a1.82,1.82,0,0,0-.316-.895,1.838,1.838,0,0,0-1.528-.569,1.767,1.767,0,0,0-1.251.366,1.145,1.145,0,0,0-.381.85.83.83,0,0,0,.445.781,6.529,6.529,0,0,0,1.32.4l1.018.232a3.12,3.12,0,0,1,1.137.46,1.722,1.722,0,0,1,.692,1.478,1.845,1.845,0,0,1-.878,1.725,3.93,3.93,0,0,1-2.039.519,3.05,3.05,0,0,1-2.121-.692,2.335,2.335,0,0,1-.751-1.864Zm12.341-4.919h1.409l2.086,6.14,2.071-6.14h1.394v7.263h-.934V-8.8q0-.222.01-.737t.01-1.1l-2.071,6.125h-.974l-2.086-6.125v.222q0,.267.012.813t.012.8v4.286h-.939Zm13.908,4.286-1.1-3.209-1.172,3.209Zm-1.617-4.286h1.112l2.635,7.263h-1.078l-.737-2.175H-72.9l-.786,2.175h-1.009Zm6.364,0h.959v3.54l3.54-3.54h1.36l-3.021,2.927,3.1,4.336h-1.28l-2.541-3.644-1.162,1.112v2.531H-65.6Zm8.569,0h5.295v.89h-4.336v2.2h4.009v.84h-4.009v2.462h4.41v.865h-5.369Zm13.009,0h3.268a2.215,2.215,0,0,1,1.562.546A1.982,1.982,0,0,1-38.6-9.692a2.232,2.232,0,0,1-.529,1.481,2,2,0,0,1-1.627.63h-2.284v3.07h-.984Zm4.43,2.086a1.093,1.093,0,0,0-.593-1.088,2.142,2.142,0,0,0-.895-.153h-1.958v2.516h1.958A1.871,1.871,0,0,0-40-8.693,1.117,1.117,0,0,0-39.59-9.687Zm4.045-2.086h5.295v.89h-4.336v2.2h4.009v.84h-4.009v2.462h4.41v.865h-5.369Zm11.757,3.327a1.907,1.907,0,0,0,1.1-.277,1.127,1.127,0,0,0,.4-1,1.071,1.071,0,0,0-.564-1.058,1.842,1.842,0,0,0-.806-.148h-2.4v2.482Zm-3.258-3.327h3.362a3.353,3.353,0,0,1,1.369.242,1.715,1.715,0,0,1,1.023,1.716,1.929,1.929,0,0,1-.269,1.068,1.947,1.947,0,0,1-.754.667,1.486,1.486,0,0,1,.64.455,1.634,1.634,0,0,1,.24.915l.035.974a2.994,2.994,0,0,0,.069.618.608.608,0,0,0,.316.445v.163H-22.22a.907.907,0,0,1-.079-.242,4.65,4.65,0,0,1-.049-.573l-.059-1.211a1.018,1.018,0,0,0-.529-.954,2.188,2.188,0,0,0-.885-.133h-2.24v3.115h-.984Zm9.008,0H-13v.89h-4.054v2.2h3.565v.865h-3.565v3.3h-.984Zm7.906,0h5.295v.89H-9.172v2.2h4.009v.84H-9.172v2.462h4.41v.865h-5.369Zm11.441-.2a2.976,2.976,0,0,1,2.141.727A2.567,2.567,0,0,1,4.3-9.593H3.337a2,2,0,0,0-.65-1.112,2.061,2.061,0,0,0-1.367-.41,2.192,2.192,0,0,0-1.733.754,3.437,3.437,0,0,0-.66,2.311,3.357,3.357,0,0,0,.6,2.069A2.082,2.082,0,0,0,1.3-5.188a1.878,1.878,0,0,0,1.656-.836,3.177,3.177,0,0,0,.45-1.157h.959a3.277,3.277,0,0,1-.85,1.923,3.026,3.026,0,0,1-2.334.934A3.08,3.08,0,0,1-.945-5.089,3.993,3.993,0,0,1-2.077-8.218a4,4,0,0,1,.85-2.635A3.106,3.106,0,0,1,1.31-11.971Zm11.258.2v.865H10.121v6.4h-1v-6.4H6.675v-.865Zm2.844,0h.994v7.263h-.994Zm7.446-.2a3.325,3.325,0,0,1,2.848,1.236,4.005,4.005,0,0,1,.722,2.467,4.317,4.317,0,0,1-.826,2.7A3.274,3.274,0,0,1,22.838-4.3,3.3,3.3,0,0,1,20.2-5.405a4.182,4.182,0,0,1-.855-2.7,4.293,4.293,0,0,1,.732-2.521A3.17,3.17,0,0,1,22.858-11.971Zm.1,6.793a2.048,2.048,0,0,0,1.881-.932,3.967,3.967,0,0,0,.581-2.143,3.057,3.057,0,0,0-.67-2.062,2.286,2.286,0,0,0-1.832-.781,2.385,2.385,0,0,0-1.839.774,3.261,3.261,0,0,0-.712,2.282,3.333,3.333,0,0,0,.611,2.034A2.3,2.3,0,0,0,22.956-5.178Zm6.364-6.6h1.162L34.15-5.89v-5.883h.934v7.263h-1.1l-3.723-5.878v5.878H29.32Z" transform="translate(231.283 105.702)" fill="#464749"/>
    </g>
  </g>
</svg>
