<svg xmlns="http://www.w3.org/2000/svg" width="175.998" height="157" viewBox="0 0 175.998 157">
  <g id="Group_10" data-name="Group 10" transform="translate(-2636 1236)">
    <g id="Group_37630" data-name="Group 37630" transform="translate(2533.455 -1236)">
      <path id="Path_38" data-name="Path 38" d="M43.238,13.841c-5.377,5.377-7.316,26.5-7.316,37.831s3.936,18.339,6.337,20.741S57.43,73.756,60.12,76.445,79.707,97.186,84.509,97.186s15.939-5.57,15.939-10.563-7.873-46.09-7.873-51.467,3.458-29,3.458-32.263S93.341.014,90.845.014,48.326,8.751,43.238,13.841" transform="translate(122.36 0)" fill="#1a1818"/>
    </g>
    <g id="Logo-shape2" transform="translate(2636 -1122.625)">
      <path id="Path_66" data-name="Path 66" d="M277.547,67.789H280.6V66.23h-7.8v1.559h3.047v8.039h1.7Z" transform="translate(-143.943 -34.957)"/>
      <path id="Path_67" data-name="Path 67" d="M232.117,75.828h-1.705V72.555L226.6,66.23h1.989l2.692,4.761L234,66.23h1.932l-3.812,6.287Z" transform="translate(-119.565 -34.957)"/>
      <rect id="Rectangle_19" data-name="Rectangle 19" width="1.691" height="9.603" transform="translate(101.569 31.273)"/>
      <path id="Path_68" data-name="Path 68" d="M194.5,66.23h1.658v9.6h-1.412l-5.3-6.835v6.835H187.79v-9.6h1.568l5.144,6.637Z" transform="translate(-99.087 -34.957)"/>
      <path id="Path_69" data-name="Path 69" d="M166.981,68.946v6.882h1.682v-9.6h-1.79l-2.929,4.539L161.03,66.23h-1.8v9.6h1.653V68.974l3.014,4.5h.047Z" transform="translate(-84.018 -34.957)"/>
      <path id="Path_70" data-name="Path 70" d="M619.169,297.228a4.931,4.931,0,0,0-5.04,4.979,4.875,4.875,0,0,0,5.007,4.955,4.968,4.968,0,1,0,.033-9.934Zm0,8.384a3.306,3.306,0,0,1-3.273-3.429,3.25,3.25,0,0,1,3.24-3.4,3.306,3.306,0,0,1,3.269,3.429,3.25,3.25,0,0,1-3.236,3.41Z" transform="translate(-552.927 -266.12)"/>
      <path id="Path_71" data-name="Path 71" d="M255.758,75.67h1.819L252.4,65.94l-4.79,9.73h1.729l3.08-6.268Z" transform="translate(-130.651 -34.804)" fill="#c12133"/>
      <path id="Path_72" data-name="Path 72" d="M585.047,313.064a.142.142,0,0,1-.151-.146v-1.143a.142.142,0,0,1,.151-.142h.255a1.011,1.011,0,0,0,1.044-.822l.194-.6-2.546-6.552a.113.113,0,0,1,.128-.146h1.417a.184.184,0,0,1,.175.146l1.568,4.539h.019l1.5-4.539a.179.179,0,0,1,.179-.146h1.37a.1.1,0,0,1,.109.146l-2.65,7.236c-.6,1.639-1.186,2.159-2.333,2.159h-.444Z" transform="translate(-537.023 -269.439)"/>
      <path id="Path_73" data-name="Path 73" d="M573.7,301.844a2.362,2.362,0,0,0-2.409-1.667,2.093,2.093,0,0,0-1.852.822h0v-3.373a.137.137,0,0,0-.142-.146h-1.327a.137.137,0,0,0-.151.146v9.513a.137.137,0,0,0,.151.137H569.3a.137.137,0,0,0,.142-.137v-.524h0a2.093,2.093,0,0,0,1.852.822,2.362,2.362,0,0,0,2.409-1.672A8.124,8.124,0,0,0,573.7,301.844Zm-1.549,3.259a1.379,1.379,0,0,1-2.584,0,6.07,6.07,0,0,1,0-2.593,1.374,1.374,0,0,1,2.584,0,5.847,5.847,0,0,1,0,2.593Z" transform="translate(-528.492 -266.253)"/>
      <path id="Path_74" data-name="Path 74" d="M6.06,19.859V2.826H0V.7H14.534V2.826H8.446V19.859Z" transform="translate(0 -0.38)"/>
      <path id="Path_75" data-name="Path 75" d="M65.515,19.859v-8.79h-11.2v8.79H51.93V.7h2.385V8.943h11.2V.7H67.9V19.859Z" transform="translate(-27.401 -0.38)"/>
      <path id="Path_76" data-name="Path 76" d="M107.96,19.859V.7h12.55V2.826H110.345V9h9.967v2.13h-9.967v6.6H120.51v2.126Z" transform="translate(-56.965 -0.38)"/>
      <path id="Path_77" data-name="Path 77" d="M735.7,237.827a3.56,3.56,0,0,0-3.821-3.647h-5.026v7.293h5.026a3.562,3.562,0,0,0,3.821-3.647M724.47,251.208V232.05h7.695a5.777,5.777,0,1,1,0,11.544h-5.314v7.61h-2.362Z" transform="translate(-611.148 -231.73)"/>
      <path id="Path_78" data-name="Path 78" d="M773.437,243.769V232.05H775.8v11.662c0,3.5,1.889,5.715,5.427,5.715s5.427-2.211,5.427-5.715V232.05h2.362v11.691c0,4.766-2.612,7.813-7.813,7.813s-7.813-3.075-7.813-7.784" transform="translate(-636.961 -231.73)"/>
      <path id="Path_79" data-name="Path 79" d="M826.58,248.185,828,246.376a8.091,8.091,0,0,0,6.032,2.73c3.42,0,4.511-1.837,4.511-3.306,0-4.941-11.336-2.211-11.336-9.046,0-3.16,2.834-5.314,6.575-5.314a9.023,9.023,0,0,1,6.807,2.669l-1.417,1.752a7.326,7.326,0,0,0-5.545-2.3c-2.3,0-3.935,1.233-3.935,3.042,0,4.308,11.336,1.837,11.336,8.975,0,2.787-1.889,5.626-7.085,5.626a9.512,9.512,0,0,1-7.354-3.042" transform="translate(-665.027 -231.408)"/>
      <path id="Path_80" data-name="Path 80" d="M672.389,233.81a7.44,7.44,0,1,0,7.44,7.44,7.44,7.44,0,0,0-7.44-7.44m9.919,7.44a9.919,9.919,0,1,1-9.919-9.919,9.919,9.919,0,0,1,9.919,9.919" transform="translate(-578.434 -231.35)"/>
    </g>
  </g>
</svg>
