<svg xmlns="http://www.w3.org/2000/svg" xmlns:xlink="http://www.w3.org/1999/xlink" width="288" height="88" viewBox="0 0 288 88">
  <defs>
    <clipPath id="clip-Artboard_1_copy">
      <rect width="288" height="88"/>
    </clipPath>
  </defs>
  <g id="Artboard_1_copy" data-name="Artboard 1 copy" clip-path="url(#clip-Artboard_1_copy)">
    <g id="Group_4" data-name="Group 4" transform="translate(-12.276 -0.243)">
      <g id="Group_1" data-name="Group 1" transform="translate(31.276 16.203)">
        <path id="Path_1" data-name="Path 1" d="M160.24,313.243v32.924h-5.364V323.214l-9.783,14.759L135.267,323.2v22.967h-5.345V313.243h4.629l10.542,15.748,10.486-15.748Z" transform="translate(-82.699 -313.243)" fill="#fff"/>
        <path id="Path_2" data-name="Path 2" d="M224.289,336.773l-20.417-23.53h-4.193v32.924h5.368V322.635l20.479,23.532h4.132V313.243h-5.369Z" transform="translate(-108.91 -313.243)" fill="#fff"/>
        <rect id="Rectangle_1" data-name="Rectangle 1" width="5.381" height="32.924" transform="translate(134.539 0)" fill="#fff"/>
        <path id="Path_3" data-name="Path 3" d="M324,313.243l-9.032,16.536-9.065-16.536h-6.346l12.715,22.265v10.659h5.378V335.508l12.712-22.265Z" transform="translate(-146.438 -313.243)" fill="#fff"/>
        <path id="Path_4" data-name="Path 4" d="M415.4,313.243v4.984h9.963v27.94h5.4v-27.94h9.954v-4.984Z" transform="translate(-189.966 -313.243)" fill="#fff"/>
        <path id="Path_5" data-name="Path 5" d="M352.787,346.167h5.681l10.78-21.121L380,346.167h5.7l-16.471-32.924Z" transform="translate(-166.438 -313.243)" fill="#b70727"/>
        <path id="Path_6" data-name="Path 6" d="M83.179,318.016a17.43,17.43,0,0,0-23.972,0,16.3,16.3,0,0,0,0,23.362,17.406,17.406,0,0,0,23.972,0,16.235,16.235,0,0,0,0-23.367m-3.79,19.767a10.974,10.974,0,0,1-8.135,3.3,11.164,11.164,0,0,1-8.2-3.3,11.437,11.437,0,0,1,0-16.158,11.152,11.152,0,0,1,8.2-3.3,11.269,11.269,0,0,1,11.441,11.394,10.828,10.828,0,0,1-3.306,8.066" transform="translate(-54.276 -313.243)" fill="#fff"/>
        <path id="Path_7" data-name="Path 7" d="M83.179,318.016a17.43,17.43,0,0,0-23.972,0,16.3,16.3,0,0,0,0,23.362,17.406,17.406,0,0,0,23.972,0,16.235,16.235,0,0,0,0-23.367m-3.79,19.767a10.974,10.974,0,0,1-8.135,3.3,11.164,11.164,0,0,1-8.2-3.3,11.437,11.437,0,0,1,0-16.158,11.152,11.152,0,0,1,8.2-3.3,11.269,11.269,0,0,1,11.441,11.394,10.828,10.828,0,0,1-3.306,8.066" transform="translate(-54.276 -313.243)" fill="#fff"/>
      </g>
      <path id="Path_16" data-name="Path 16" d="M-139.471-5.34a2.724,2.724,0,0,0,.822-.1,1.808,1.808,0,0,0,.941-.743,3.044,3.044,0,0,0,.421-1.129,4.307,4.307,0,0,0,.074-.763,3.552,3.552,0,0,0-.537-2.1,1.985,1.985,0,0,0-1.731-.748h-1.748V-5.34Zm-2.748-6.433h2.947a2.777,2.777,0,0,1,2.328,1.065,3.925,3.925,0,0,1,.738,2.461,4.9,4.9,0,0,1-.436,2.095,2.689,2.689,0,0,1-2.64,1.654h-2.937Zm9.1,0h5.3v.891h-4.343v2.209h4.016v.842h-4.016v2.466h4.417V-4.5h-5.378Zm13.689,0v.867h-2.451V-4.5h-1v-6.408h-2.451v-.867Zm5.612,4.294-1.1-3.214L-116.1-7.479Zm-1.619-4.294h1.114l2.64,7.275h-1.08l-.738-2.179h-2.877l-.787,2.179h-1.01Zm6.6,0h1V-4.5h-1Zm4.319,0h.985v6.408h3.684V-4.5h-4.67Zm8.009,4.927a1.988,1.988,0,0,0,.292,1.005,1.937,1.937,0,0,0,1.728.723,3.059,3.059,0,0,0,1.01-.158,1.123,1.123,0,0,0,.882-1.1.949.949,0,0,0-.371-.847,3.75,3.75,0,0,0-1.179-.431l-.986-.223a4.462,4.462,0,0,1-1.367-.48A1.522,1.522,0,0,1-97.2-9.718a2.1,2.1,0,0,1,.678-1.609,2.722,2.722,0,0,1,1.921-.629,3.337,3.337,0,0,1,1.944.552,1.993,1.993,0,0,1,.8,1.765h-.926a1.823,1.823,0,0,0-.317-.9,1.841,1.841,0,0,0-1.53-.57,1.77,1.77,0,0,0-1.253.366,1.147,1.147,0,0,0-.381.852.832.832,0,0,0,.446.782,6.54,6.54,0,0,0,1.322.4l1.02.233a3.126,3.126,0,0,1,1.139.461,1.725,1.725,0,0,1,.693,1.481A1.848,1.848,0,0,1-92.522-4.8a3.937,3.937,0,0,1-2.043.52,3.055,3.055,0,0,1-2.125-.693,2.339,2.339,0,0,1-.753-1.867Zm12.362-4.927h1.411l2.09,6.151,2.075-6.151h1.4V-4.5h-.936V-8.791q0-.223.01-.738t.01-1.1L-80.172-4.5h-.976l-2.09-6.136v.223q0,.267.012.815t.012.8V-4.5h-.941Zm13.931,4.294-1.1-3.214L-72.5-7.479Zm-1.619-4.294h1.114l2.64,7.275h-1.08l-.738-2.179h-2.877L-73.57-4.5h-1.01Zm6.374,0h.961v3.546l3.546-3.546H-59.6l-3.026,2.932,3.11,4.343H-60.8l-2.545-3.65-1.164,1.114V-4.5h-.961Zm8.583,0h5.3v.891h-4.343v2.209h4.016v.842h-4.016v2.466h4.417V-4.5h-5.378Zm13.031,0h3.273a2.219,2.219,0,0,1,1.565.547,1.986,1.986,0,0,1,.594,1.538,2.236,2.236,0,0,1-.53,1.483,2.008,2.008,0,0,1-1.629.631h-2.288V-4.5h-.985Zm4.437,2.09a1.1,1.1,0,0,0-.594-1.089,2.146,2.146,0,0,0-.9-.154h-1.961v2.521h1.961a1.874,1.874,0,0,0,1.077-.282A1.119,1.119,0,0,0-39.416-9.683Zm4.052-2.09h5.3v.891H-34.4v2.209h4.016v.842H-34.4v2.466h4.417V-4.5h-5.378ZM-23.587-8.44a1.91,1.91,0,0,0,1.1-.277,1.129,1.129,0,0,0,.4-1,1.073,1.073,0,0,0-.565-1.06,1.845,1.845,0,0,0-.807-.149h-2.407V-8.44Zm-3.264-3.333h3.368a3.359,3.359,0,0,1,1.372.243,1.718,1.718,0,0,1,1.025,1.718,1.932,1.932,0,0,1-.27,1.07,1.95,1.95,0,0,1-.755.669,1.488,1.488,0,0,1,.641.456,1.636,1.636,0,0,1,.24.916l.035.976a3,3,0,0,0,.069.619.609.609,0,0,0,.317.446V-4.5h-1.208a.909.909,0,0,1-.079-.243,4.658,4.658,0,0,1-.05-.574l-.059-1.213a1.019,1.019,0,0,0-.53-.956,2.192,2.192,0,0,0-.886-.134h-2.243V-4.5h-.985Zm9.024,0h5.046v.891h-4.061v2.209h3.571v.867h-3.571V-4.5h-.985Zm7.919,0h5.3v.891H-8.947v2.209h4.016v.842H-8.947v2.466H-4.53V-4.5H-9.908Zm11.46-.2a2.981,2.981,0,0,1,2.144.728,2.571,2.571,0,0,1,.847,1.654H3.583A2,2,0,0,0,2.932-10.7a2.064,2.064,0,0,0-1.369-.411,2.2,2.2,0,0,0-1.736.755A3.443,3.443,0,0,0-.834-8.044a3.363,3.363,0,0,0,.6,2.073,2.085,2.085,0,0,0,1.78.795A1.881,1.881,0,0,0,3.2-6.013a3.183,3.183,0,0,0,.451-1.159h.961a3.283,3.283,0,0,1-.852,1.926,3.031,3.031,0,0,1-2.337.936A3.085,3.085,0,0,1-.706-5.077,4,4,0,0,1-1.84-8.212a4,4,0,0,1,.852-2.64A3.111,3.111,0,0,1,1.553-11.971Zm11.277.2v.867H10.378V-4.5h-1v-6.408H6.926v-.867Zm2.848,0h1V-4.5h-1Zm7.459-.2a3.33,3.33,0,0,1,2.852,1.238,4.012,4.012,0,0,1,.723,2.471,4.324,4.324,0,0,1-.827,2.709,3.28,3.28,0,0,1-2.768,1.268,3.309,3.309,0,0,1-2.64-1.109,4.189,4.189,0,0,1-.857-2.7,4.3,4.3,0,0,1,.733-2.526A3.175,3.175,0,0,1,23.137-11.971Zm.1,6.8A2.052,2.052,0,0,0,25.12-6.1,3.973,3.973,0,0,0,25.7-8.247a3.062,3.062,0,0,0-.671-2.065,2.29,2.29,0,0,0-1.835-.782,2.389,2.389,0,0,0-1.842.775,3.267,3.267,0,0,0-.713,2.285A3.339,3.339,0,0,0,21.252-6,2.3,2.3,0,0,0,23.236-5.166Zm6.374-6.606h1.164L34.448-5.88v-5.893h.936V-4.5h-1.1l-3.729-5.888V-4.5H29.61Z" transform="translate(208.342 76.784)" fill="#fff"/>
    </g>
  </g>
</svg>
